<svg width="156" height="29" viewBox="0 0 156 29" fill="none" xmlns="http://www.w3.org/2000/svg">
<path d="M1.5235 27.808C1.0115 27.808 0.638167 27.6907 0.4035 27.456C0.168833 27.2213 0.0515 26.848 0.0515 26.336V22.592C0.0515 22.3147 0.0835 22.08 0.1475 21.888C0.232833 21.696 0.350167 21.536 0.4995 21.408L3.6995 18.72C2.56883 18.3787 1.67283 17.8027 1.0115 16.992C0.3715 16.16 0.0515 14.976 0.0515 13.44V10.08C0.0515 9.12 0.2115 8.26667 0.5315 7.52C0.8515 6.77333 1.31017 6.144 1.9075 5.632L6.0675 2.144C6.6435 1.67467 7.35817 1.312 8.2115 1.056C9.06483 0.778666 10.0355 0.639999 11.1235 0.639999H20.0835C20.5955 0.639999 20.9688 0.757332 21.2035 0.991999C21.4382 1.22667 21.5555 1.6 21.5555 2.112V5.92C21.5555 6.19733 21.5128 6.432 21.4275 6.624C21.3635 6.816 21.2568 6.976 21.1075 7.104L18.2275 9.504C19.5715 9.80267 20.6488 10.368 21.4595 11.2C22.2915 12.0107 22.7075 13.28 22.7075 15.008V18.368C22.7075 19.328 22.5475 20.1813 22.2275 20.928C21.9075 21.6747 21.4382 22.304 20.8195 22.816L16.6915 26.272C16.0942 26.7627 15.3688 27.136 14.5155 27.392C13.6622 27.6693 12.7022 27.808 11.6355 27.808H1.5235ZM15.7635 24C17.8115 24 19.4222 23.52 20.5955 22.56C21.7902 21.5787 22.3875 20.1813 22.3875 18.368V15.008C22.3875 13.216 21.9288 11.936 21.0115 11.168C20.0942 10.4 18.8888 9.90933 17.3955 9.696L12.6275 9.056C12.3502 9.03467 12.1368 8.928 11.9875 8.736C11.8382 8.544 11.7635 8.30933 11.7635 8.032C11.7635 7.75467 11.8382 7.53067 11.9875 7.36C12.1368 7.168 12.3502 7.072 12.6275 7.072H20.0835C20.4888 7.072 20.7768 6.98667 20.9475 6.816C21.1395 6.624 21.2355 6.32533 21.2355 5.92V2.112C21.2355 1.70667 21.1395 1.41867 20.9475 1.248C20.7768 1.056 20.4888 0.959999 20.0835 0.959999H11.1235C9.05417 0.959999 7.43283 1.45067 6.2595 2.432C5.08617 3.392 4.4995 4.77867 4.4995 6.592V9.952C4.4995 11.744 4.9475 13.024 5.8435 13.792C6.76083 14.56 7.96617 15.0507 9.4595 15.264L14.2595 15.936C14.5368 15.9573 14.7395 16.0533 14.8675 16.224C15.0168 16.3947 15.0915 16.6613 15.0915 17.024C15.0915 17.28 15.0168 17.504 14.8675 17.696C14.7395 17.8667 14.5368 17.952 14.2595 17.952H5.6515C5.24617 17.952 4.9475 18.048 4.7555 18.24C4.58483 18.4107 4.4995 18.6987 4.4995 19.104V22.848C4.4995 23.2533 4.58483 23.552 4.7555 23.744C4.9475 23.9147 5.24617 24 5.6515 24H15.7635ZM18.3555 3.84V4.16H11.2515C10.3555 4.16 9.64083 4.40533 9.1075 4.896C8.57417 5.38667 8.3075 6.00533 8.3075 6.752V9.376C8.3075 10.1227 8.45683 10.6453 8.7555 10.944C9.05417 11.2427 9.44883 11.4347 9.9395 11.52L16.6915 12.896C17.3315 13.024 17.8542 13.3013 18.2595 13.728C18.6862 14.1547 18.8995 14.9227 18.8995 16.032V17.888C18.8995 18.8267 18.5795 19.6053 17.9395 20.224C17.2995 20.8213 16.4355 21.12 15.3475 21.12H7.3795V20.8H15.3475C16.3288 20.8 17.1075 20.5333 17.6835 20C18.2808 19.4453 18.5795 18.7413 18.5795 17.888V16.032C18.5795 15.0293 18.3982 14.3467 18.0355 13.984C17.6942 13.6 17.2248 13.344 16.6275 13.216L9.8755 11.84C9.32083 11.7333 8.86217 11.52 8.4995 11.2C8.15817 10.8587 7.9875 10.2507 7.9875 9.376V6.752C7.9875 5.89867 8.28617 5.20533 8.8835 4.672C9.48083 4.11733 10.2702 3.84 11.2515 3.84H18.3555ZM34.6755 28.288C32.6062 28.288 30.8995 28.064 29.5555 27.616C28.2328 27.1893 27.1982 26.6133 26.4515 25.888C25.7048 25.1627 25.1822 24.3307 24.8835 23.392C24.6062 22.4533 24.4675 21.4827 24.4675 20.48V5.6C24.4675 5.32267 24.4995 5.088 24.5635 4.896C24.6488 4.704 24.7662 4.544 24.9155 4.416L29.0435 0.927999C29.1502 0.842666 29.2888 0.778666 29.4595 0.735998C29.6515 0.671999 29.8542 0.639999 30.0675 0.639999H35.0915C35.6035 0.639999 35.9768 0.757332 36.2115 0.991999C36.4462 1.22667 36.5635 1.6 36.5635 2.112V16.704C36.5635 16.896 36.5955 17.0773 36.6595 17.248C36.7235 17.3973 36.8622 17.5147 37.0755 17.6V5.6C37.0755 5.32267 37.1075 5.088 37.1715 4.896C37.2355 4.704 37.3315 4.55467 37.4595 4.448L37.4915 4.416L41.6515 0.927999C41.7582 0.842666 41.8968 0.778666 42.0675 0.735998C42.2382 0.671999 42.4408 0.639999 42.6755 0.639999H47.5395C48.0515 0.639999 48.4248 0.757332 48.6595 0.991999C48.8942 1.22667 49.0115 1.6 49.0115 2.112V17.952C49.0115 18.9333 48.8728 19.84 48.5955 20.672C48.3182 21.504 47.8168 22.2187 47.0915 22.816L42.9315 26.272C42.1848 26.912 41.1502 27.4027 39.8275 27.744C38.5048 28.1067 36.7875 28.288 34.6755 28.288ZM48.6915 17.952V2.112C48.6915 1.70667 48.5955 1.41867 48.4035 1.248C48.2328 1.056 47.9448 0.959999 47.5395 0.959999H42.6755C42.2702 0.959999 41.9715 1.056 41.7795 1.248C41.6088 1.41867 41.5235 1.70667 41.5235 2.112V16.704C41.5235 17.1307 41.3635 17.4933 41.0435 17.792C40.7235 18.0693 39.9982 18.208 38.8675 18.208C37.7582 18.208 37.0435 18.0693 36.7235 17.792C36.4035 17.4933 36.2435 17.1307 36.2435 16.704V2.112C36.2435 1.70667 36.1475 1.41867 35.9555 1.248C35.7848 1.056 35.4968 0.959999 35.0915 0.959999H30.0675C29.6622 0.959999 29.3635 1.056 29.1715 1.248C29.0008 1.41867 28.9155 1.70667 28.9155 2.112V17.952C28.9155 18.9333 29.0542 19.8293 29.3315 20.64C29.6302 21.4293 30.1422 22.112 30.8675 22.688C31.6142 23.2427 32.6275 23.68 33.9075 24C35.1875 24.32 36.8195 24.48 38.8035 24.48C40.7875 24.48 42.4195 24.32 43.6995 24C44.9795 23.68 45.9822 23.2427 46.7075 22.688C47.4542 22.112 47.9662 21.4293 48.2435 20.64C48.5422 19.8293 48.6915 18.9333 48.6915 17.952ZM32.4355 3.84H32.7555V17.184C32.7555 18.3787 33.1715 19.3493 34.0035 20.096C34.8568 20.8213 36.4675 21.184 38.8355 21.184C41.2035 21.184 42.8142 20.8213 43.6675 20.096C44.5208 19.3493 44.9475 18.3787 44.9475 17.184V3.84H45.2675V17.184C45.2675 18.464 44.8195 19.5093 43.9235 20.32C43.0275 21.1093 41.3315 21.504 38.8355 21.504C36.3395 21.504 34.6435 21.1093 33.7475 20.32C32.8728 19.5093 32.4355 18.464 32.4355 17.184V3.84ZM52.586 27.808C52.074 27.808 51.7007 27.6907 51.466 27.456C51.2313 27.2213 51.114 26.848 51.114 26.336V22.592C51.114 22.3147 51.146 22.08 51.21 21.888C51.2953 21.696 51.4127 21.536 51.562 21.408L54.762 18.72C53.6313 18.3787 52.7353 17.8027 52.074 16.992C51.434 16.16 51.114 14.976 51.114 13.44V10.08C51.114 9.12 51.274 8.26667 51.594 7.52C51.914 6.77333 52.3727 6.144 52.97 5.632L57.13 2.144C57.706 1.67467 58.4207 1.312 59.274 1.056C60.1273 0.778666 61.098 0.639999 62.186 0.639999H71.146C71.658 0.639999 72.0313 0.757332 72.266 0.991999C72.5007 1.22667 72.618 1.6 72.618 2.112V5.92C72.618 6.19733 72.5753 6.432 72.49 6.624C72.426 6.816 72.3193 6.976 72.17 7.104L69.29 9.504C70.634 9.80267 71.7113 10.368 72.522 11.2C73.354 12.0107 73.77 13.28 73.77 15.008V18.368C73.77 19.328 73.61 20.1813 73.29 20.928C72.97 21.6747 72.5007 22.304 71.882 22.816L67.754 26.272C67.1567 26.7627 66.4313 27.136 65.578 27.392C64.7247 27.6693 63.7647 27.808 62.698 27.808H52.586ZM66.826 24C68.874 24 70.4847 23.52 71.658 22.56C72.8527 21.5787 73.45 20.1813 73.45 18.368V15.008C73.45 13.216 72.9913 11.936 72.074 11.168C71.1567 10.4 69.9513 9.90933 68.458 9.696L63.69 9.056C63.4127 9.03467 63.1993 8.928 63.05 8.736C62.9007 8.544 62.826 8.30933 62.826 8.032C62.826 7.75467 62.9007 7.53067 63.05 7.36C63.1993 7.168 63.4127 7.072 63.69 7.072H71.146C71.5513 7.072 71.8393 6.98667 72.01 6.816C72.202 6.624 72.298 6.32533 72.298 5.92V2.112C72.298 1.70667 72.202 1.41867 72.01 1.248C71.8393 1.056 71.5513 0.959999 71.146 0.959999H62.186C60.1167 0.959999 58.4953 1.45067 57.322 2.432C56.1487 3.392 55.562 4.77867 55.562 6.592V9.952C55.562 11.744 56.01 13.024 56.906 13.792C57.8233 14.56 59.0287 15.0507 60.522 15.264L65.322 15.936C65.5993 15.9573 65.802 16.0533 65.93 16.224C66.0793 16.3947 66.154 16.6613 66.154 17.024C66.154 17.28 66.0793 17.504 65.93 17.696C65.802 17.8667 65.5993 17.952 65.322 17.952H56.714C56.3087 17.952 56.01 18.048 55.818 18.24C55.6473 18.4107 55.562 18.6987 55.562 19.104V22.848C55.562 23.2533 55.6473 23.552 55.818 23.744C56.01 23.9147 56.3087 24 56.714 24H66.826ZM69.418 3.84V4.16H62.314C61.418 4.16 60.7033 4.40533 60.17 4.896C59.6367 5.38667 59.37 6.00533 59.37 6.752V9.376C59.37 10.1227 59.5193 10.6453 59.818 10.944C60.1167 11.2427 60.5113 11.4347 61.002 11.52L67.754 12.896C68.394 13.024 68.9167 13.3013 69.322 13.728C69.7487 14.1547 69.962 14.9227 69.962 16.032V17.888C69.962 18.8267 69.642 19.6053 69.002 20.224C68.362 20.8213 67.498 21.12 66.41 21.12H58.442V20.8H66.41C67.3913 20.8 68.17 20.5333 68.746 20C69.3433 19.4453 69.642 18.7413 69.642 17.888V16.032C69.642 15.0293 69.4607 14.3467 69.098 13.984C68.7567 13.6 68.2873 13.344 67.69 13.216L60.938 11.84C60.3833 11.7333 59.9247 11.52 59.562 11.2C59.2207 10.8587 59.05 10.2507 59.05 9.376V6.752C59.05 5.89867 59.3487 5.20533 59.946 4.672C60.5433 4.11733 61.3327 3.84 62.314 3.84H69.418ZM85.738 28.288C83.6687 28.288 81.962 28.064 80.618 27.616C79.2953 27.1893 78.2607 26.6133 77.514 25.888C76.7673 25.1627 76.2447 24.3307 75.946 23.392C75.6687 22.4533 75.53 21.4827 75.53 20.48V5.6C75.53 5.32267 75.562 5.088 75.626 4.896C75.7113 4.704 75.8287 4.544 75.978 4.416L80.106 0.927999C80.2127 0.842666 80.3513 0.778666 80.522 0.735998C80.714 0.671999 80.9167 0.639999 81.13 0.639999H86.154C86.666 0.639999 87.0393 0.757332 87.274 0.991999C87.5087 1.22667 87.626 1.6 87.626 2.112V16.704C87.626 16.896 87.658 17.0773 87.722 17.248C87.786 17.3973 87.9247 17.5147 88.138 17.6V5.6C88.138 5.32267 88.17 5.088 88.234 4.896C88.298 4.704 88.394 4.55467 88.522 4.448L88.554 4.416L92.714 0.927999C92.8207 0.842666 92.9593 0.778666 93.13 0.735998C93.3007 0.671999 93.5033 0.639999 93.738 0.639999H98.602C99.114 0.639999 99.4873 0.757332 99.722 0.991999C99.9567 1.22667 100.074 1.6 100.074 2.112V17.952C100.074 18.9333 99.9353 19.84 99.658 20.672C99.3807 21.504 98.8793 22.2187 98.154 22.816L93.994 26.272C93.2473 26.912 92.2127 27.4027 90.89 27.744C89.5673 28.1067 87.85 28.288 85.738 28.288ZM99.754 17.952V2.112C99.754 1.70667 99.658 1.41867 99.466 1.248C99.2953 1.056 99.0073 0.959999 98.602 0.959999H93.738C93.3327 0.959999 93.034 1.056 92.842 1.248C92.6713 1.41867 92.586 1.70667 92.586 2.112V16.704C92.586 17.1307 92.426 17.4933 92.106 17.792C91.786 18.0693 91.0607 18.208 89.93 18.208C88.8207 18.208 88.106 18.0693 87.786 17.792C87.466 17.4933 87.306 17.1307 87.306 16.704V2.112C87.306 1.70667 87.21 1.41867 87.018 1.248C86.8473 1.056 86.5593 0.959999 86.154 0.959999H81.13C80.7247 0.959999 80.426 1.056 80.234 1.248C80.0633 1.41867 79.978 1.70667 79.978 2.112V17.952C79.978 18.9333 80.1167 19.8293 80.394 20.64C80.6927 21.4293 81.2047 22.112 81.93 22.688C82.6767 23.2427 83.69 23.68 84.97 24C86.25 24.32 87.882 24.48 89.866 24.48C91.85 24.48 93.482 24.32 94.762 24C96.042 23.68 97.0447 23.2427 97.77 22.688C98.5167 22.112 99.0287 21.4293 99.306 20.64C99.6047 19.8293 99.754 18.9333 99.754 17.952ZM83.498 3.84H83.818V17.184C83.818 18.3787 84.234 19.3493 85.066 20.096C85.9193 20.8213 87.53 21.184 89.898 21.184C92.266 21.184 93.8767 20.8213 94.73 20.096C95.5833 19.3493 96.01 18.3787 96.01 17.184V3.84H96.33V17.184C96.33 18.464 95.882 19.5093 94.986 20.32C94.09 21.1093 92.394 21.504 89.898 21.504C87.402 21.504 85.706 21.1093 84.81 20.32C83.9353 19.5093 83.498 18.464 83.498 17.184V3.84ZM118.465 11.68C118.849 11.68 119.126 11.5947 119.297 11.424C119.467 11.2533 119.734 10.8907 120.097 10.336L124.001 4.384C124.129 4.17067 124.267 4.032 124.417 3.968C124.587 3.88266 124.758 3.84 124.929 3.84H125.473C125.771 3.84 125.985 3.92533 126.113 4.096C126.262 4.24533 126.337 4.49067 126.337 4.832V21.12H126.017V4.832C126.017 4.66133 125.974 4.512 125.889 4.384C125.825 4.23467 125.686 4.16 125.473 4.16H124.993C124.843 4.16 124.715 4.18133 124.609 4.224C124.502 4.26667 124.385 4.39467 124.257 4.608L120.353 10.496C119.969 11.072 119.67 11.4667 119.457 11.68C119.265 11.8933 118.934 12 118.465 12C117.995 12 117.654 11.8933 117.441 11.68C117.249 11.4667 116.961 11.072 116.577 10.496L112.673 4.608C112.545 4.39467 112.417 4.26667 112.289 4.224C112.182 4.18133 112.054 4.16 111.905 4.16H111.425C111.211 4.16 111.073 4.23467 111.009 4.384C110.945 4.512 110.913 4.66133 110.913 4.832V21.12H110.593V4.832C110.593 4.49067 110.657 4.24533 110.785 4.096C110.934 3.92533 111.147 3.84 111.425 3.84H111.969C112.139 3.84 112.31 3.88266 112.481 3.968C112.651 4.032 112.801 4.17067 112.929 4.384L116.833 10.336C117.195 10.8907 117.462 11.2533 117.633 11.424C117.803 11.5947 118.081 11.68 118.465 11.68ZM113.121 24C113.526 24 113.814 23.9147 113.985 23.744C114.177 23.552 114.273 23.2533 114.273 22.848V11.584L116.161 15.072C116.353 15.4347 116.577 15.7013 116.833 15.872C117.11 16.0213 117.451 16.096 117.857 16.096H119.137C119.542 16.096 119.873 16.0213 120.128 15.872C120.406 15.7013 120.641 15.4347 120.833 15.072L122.721 11.584V22.848C122.721 23.2533 122.806 23.552 122.977 23.744C123.169 23.9147 123.467 24 123.873 24H128.801C129.206 24 129.494 23.9147 129.665 23.744C129.857 23.552 129.953 23.2533 129.953 22.848V2.112C129.953 1.70667 129.857 1.41867 129.665 1.248C129.494 1.056 129.206 0.959999 128.801 0.959999H123.617C123.275 0.959999 122.987 1.03467 122.753 1.184C122.539 1.33333 122.337 1.57867 122.145 1.92L119.297 7.136C119.19 7.328 119.094 7.46667 119.009 7.552C118.945 7.63733 118.849 7.68 118.721 7.68H118.433C118.305 7.68 118.198 7.63733 118.113 7.552C118.049 7.46667 117.963 7.328 117.857 7.136L114.977 1.92C114.785 1.57867 114.571 1.33333 114.337 1.184C114.123 1.03467 113.846 0.959999 113.505 0.959999H108.353C107.947 0.959999 107.649 1.056 107.457 1.248C107.286 1.41867 107.201 1.70667 107.201 2.112V22.848C107.201 23.2533 107.286 23.552 107.457 23.744C107.649 23.9147 107.947 24 108.353 24H113.121ZM114.145 24.032L109.985 27.488C109.899 27.5733 109.761 27.648 109.569 27.712C109.398 27.776 109.206 27.808 108.993 27.808H104.225C103.713 27.808 103.339 27.6907 103.105 27.456C102.87 27.2213 102.753 26.848 102.753 26.336V5.6C102.753 5.32267 102.785 5.088 102.849 4.896C102.934 4.704 103.051 4.544 103.201 4.416L107.329 0.927999C107.435 0.842666 107.574 0.778666 107.745 0.735998C107.937 0.671999 108.139 0.639999 108.353 0.639999H113.505C113.91 0.639999 114.241 0.725332 114.497 0.895998C114.774 1.06667 115.03 1.35467 115.265 1.76L117.441 5.76L117.729 5.248C117.814 5.09867 117.899 4.96 117.985 4.832C118.091 4.68267 118.198 4.56533 118.305 4.48L122.433 1.024C122.603 0.895999 122.774 0.799999 122.945 0.735998C123.137 0.671999 123.361 0.639999 123.617 0.639999H128.801C129.313 0.639999 129.686 0.757332 129.921 0.991999C130.155 1.22667 130.273 1.6 130.273 2.112V22.848C130.273 23.1253 130.23 23.36 130.145 23.552C130.081 23.744 129.974 23.904 129.825 24.032L125.665 27.488C125.579 27.5733 125.441 27.648 125.249 27.712C125.078 27.776 124.886 27.808 124.673 27.808H119.745C119.211 27.808 118.827 27.6907 118.593 27.456C118.379 27.2213 118.273 26.848 118.273 26.336V17.888L116.385 19.456C116.214 19.6053 116.011 19.7227 115.777 19.808C115.563 19.872 115.307 19.904 115.009 19.904H114.593V22.848C114.593 23.1253 114.55 23.36 114.465 23.552C114.401 23.744 114.294 23.904 114.145 24.032ZM149.448 27.808H134.6C134.088 27.808 133.714 27.6907 133.48 27.456C133.245 27.2213 133.128 26.848 133.128 26.336V5.6C133.128 5.32267 133.16 5.088 133.224 4.896C133.309 4.704 133.426 4.544 133.576 4.416L137.704 0.927999C137.81 0.842666 137.949 0.778666 138.12 0.735998C138.312 0.671999 138.514 0.639999 138.728 0.639999H153.576C154.088 0.639999 154.461 0.757332 154.696 0.991999C154.93 1.22667 155.048 1.6 155.048 2.112V5.856C155.048 6.13333 155.005 6.368 154.92 6.56C154.856 6.752 154.749 6.912 154.6 7.04L151.848 9.312C152.061 9.41867 152.21 9.57867 152.296 9.792C152.402 10.0053 152.456 10.2827 152.456 10.624V14.048C152.456 14.3253 152.413 14.56 152.328 14.752C152.264 14.944 152.157 15.104 152.008 15.232L149.16 17.632H153.576C154.088 17.632 154.461 17.7493 154.696 17.984C154.93 18.2187 155.048 18.592 155.048 19.104V22.848C155.048 23.1253 155.005 23.36 154.92 23.552C154.856 23.744 154.749 23.904 154.6 24.032L150.44 27.488C150.354 27.5733 150.216 27.648 150.024 27.712C149.853 27.776 149.661 27.808 149.448 27.808ZM153.576 24C153.981 24 154.269 23.9147 154.44 23.744C154.632 23.552 154.728 23.2533 154.728 22.848V19.104C154.728 18.6987 154.632 18.4107 154.44 18.24C154.269 18.048 153.981 17.952 153.576 17.952H144.744V15.2H150.984C151.389 15.2 151.677 15.1147 151.848 14.944C152.04 14.752 152.136 14.4533 152.136 14.048V10.624C152.136 10.2187 152.04 9.93067 151.848 9.76C151.677 9.568 151.389 9.472 150.984 9.472H144.744V7.008H153.576C153.981 7.008 154.269 6.92267 154.44 6.752C154.632 6.56 154.728 6.26133 154.728 5.856V2.112C154.728 1.70667 154.632 1.41867 154.44 1.248C154.269 1.056 153.981 0.959999 153.576 0.959999H138.728C138.322 0.959999 138.024 1.056 137.832 1.248C137.661 1.41867 137.576 1.70667 137.576 2.112V22.848C137.576 23.2533 137.661 23.552 137.832 23.744C138.024 23.9147 138.322 24 138.728 24H153.576ZM151.848 20.8V21.12H141.064V3.84H151.848V4.16H141.384V12.192H149.256V12.512H141.384V20.8H151.848Z" fill="#FE693C"/>
</svg>
