<svg width="239" height="199" viewBox="0 0 239 199" fill="none" xmlns="http://www.w3.org/2000/svg">
<path d="M12.9143 82.424C11.3783 82.424 10.2583 82.072 9.55425 81.368C8.85025 80.664 8.49825 79.544 8.49825 78.008V66.776C8.49825 65.944 8.59425 65.24 8.78625 64.664C9.04225 64.088 9.39425 63.608 9.84225 63.224L19.4423 55.16C16.0503 54.136 13.3623 52.408 11.3783 49.976C9.45825 47.48 8.49825 43.928 8.49825 39.32V29.24C8.49825 26.36 8.97825 23.8 9.93825 21.56C10.8983 19.32 12.2743 17.432 14.0663 15.896L26.5463 5.432C28.2743 4.024 30.4183 2.936 32.9783 2.168C35.5383 1.336 38.4503 0.919998 41.7143 0.919998H68.5943C70.1303 0.919998 71.2503 1.272 71.9543 1.976C72.6583 2.68 73.0103 3.8 73.0103 5.336V16.76C73.0103 17.592 72.8823 18.296 72.6263 18.872C72.4343 19.448 72.1143 19.928 71.6663 20.312L63.0263 27.512C67.0583 28.408 70.2903 30.104 72.7223 32.6C75.2183 35.032 76.4663 38.84 76.4663 44.024V54.104C76.4663 56.984 75.9863 59.544 75.0263 61.784C74.0663 64.024 72.6583 65.912 70.8023 67.448L58.4183 77.816C56.6263 79.288 54.4503 80.408 51.8903 81.176C49.3303 82.008 46.4503 82.424 43.2503 82.424H12.9143ZM55.6343 71C61.7783 71 66.6103 69.56 70.1303 66.68C73.7143 63.736 75.5063 59.544 75.5063 54.104V44.024C75.5063 38.648 74.1303 34.808 71.3783 32.504C68.6263 30.2 65.0103 28.728 60.5303 28.088L46.2263 26.168C45.3943 26.104 44.7543 25.784 44.3063 25.208C43.8583 24.632 43.6343 23.928 43.6343 23.096C43.6343 22.264 43.8583 21.592 44.3063 21.08C44.7543 20.504 45.3943 20.216 46.2263 20.216H68.5943C69.8103 20.216 70.6743 19.96 71.1863 19.448C71.7623 18.872 72.0503 17.976 72.0503 16.76V5.336C72.0503 4.12 71.7623 3.256 71.1863 2.744C70.6743 2.168 69.8103 1.88 68.5943 1.88H41.7143C35.5063 1.88 30.6423 3.352 27.1223 6.296C23.6023 9.176 21.8423 13.336 21.8423 18.776V28.856C21.8423 34.232 23.1863 38.072 25.8743 40.376C28.6263 42.68 32.2423 44.152 36.7223 44.792L51.1223 46.808C51.9543 46.872 52.5623 47.16 52.9463 47.672C53.3943 48.184 53.6183 48.984 53.6183 50.072C53.6183 50.84 53.3943 51.512 52.9463 52.088C52.5623 52.6 51.9543 52.856 51.1223 52.856H25.2983C24.0823 52.856 23.1863 53.144 22.6103 53.72C22.0983 54.232 21.8423 55.096 21.8423 56.312V67.544C21.8423 68.76 22.0983 69.656 22.6103 70.232C23.1863 70.744 24.0823 71 25.2983 71H55.6343ZM63.4103 10.52V11.48H42.0983C39.4103 11.48 37.2663 12.216 35.6663 13.688C34.0663 15.16 33.2663 17.016 33.2663 19.256V27.128C33.2663 29.368 33.7143 30.936 34.6103 31.832C35.5063 32.728 36.6903 33.304 38.1623 33.56L58.4183 37.688C60.3383 38.072 61.9063 38.904 63.1223 40.184C64.4023 41.464 65.0423 43.768 65.0423 47.096V52.664C65.0423 55.48 64.0823 57.816 62.1623 59.672C60.2423 61.464 57.6503 62.36 54.3862 62.36H30.4823V61.4H54.3862C57.3302 61.4 59.6663 60.6 61.3943 59C63.1863 57.336 64.0823 55.224 64.0823 52.664V47.096C64.0823 44.088 63.5383 42.04 62.4503 40.952C61.4263 39.8 60.0183 39.032 58.2263 38.648L37.9703 34.52C36.3063 34.2 34.9303 33.56 33.8423 32.6C32.8183 31.576 32.3063 29.752 32.3063 27.128V19.256C32.3063 16.696 33.2023 14.616 34.9943 13.016C36.7863 11.352 39.1543 10.52 42.0983 10.52H63.4103ZM112.37 83.864C106.162 83.864 101.042 83.192 97.0103 81.848C93.0423 80.568 89.9383 78.84 87.6983 76.664C85.4583 74.488 83.8903 71.992 82.9943 69.176C82.1623 66.36 81.7463 63.448 81.7463 60.44V15.8C81.7463 14.968 81.8423 14.264 82.0343 13.688C82.2903 13.112 82.6423 12.632 83.0903 12.248L95.4743 1.784C95.7943 1.528 96.2103 1.336 96.7223 1.20799C97.2983 1.016 97.9063 0.919998 98.5463 0.919998H113.618C115.154 0.919998 116.274 1.272 116.978 1.976C117.682 2.68 118.034 3.8 118.034 5.336V49.112C118.034 49.688 118.13 50.232 118.322 50.744C118.514 51.192 118.93 51.544 119.57 51.8V15.8C119.57 14.968 119.666 14.264 119.858 13.688C120.05 13.112 120.338 12.664 120.722 12.344L120.818 12.248L133.298 1.784C133.618 1.528 134.034 1.336 134.546 1.20799C135.058 1.016 135.666 0.919998 136.37 0.919998H150.962C152.498 0.919998 153.618 1.272 154.322 1.976C155.026 2.68 155.378 3.8 155.378 5.336V52.856C155.378 55.8 154.962 58.52 154.13 61.016C153.298 63.512 151.794 65.656 149.618 67.448L137.138 77.816C134.898 79.736 131.794 81.208 127.826 82.232C123.858 83.32 118.706 83.864 112.37 83.864ZM154.418 52.856V5.336C154.418 4.12 154.13 3.256 153.554 2.744C153.042 2.168 152.178 1.88 150.962 1.88H136.37C135.154 1.88 134.258 2.168 133.682 2.744C133.17 3.256 132.914 4.12 132.914 5.336V49.112C132.914 50.392 132.434 51.48 131.474 52.376C130.514 53.208 128.338 53.624 124.946 53.624C121.618 53.624 119.474 53.208 118.514 52.376C117.554 51.48 117.074 50.392 117.074 49.112V5.336C117.074 4.12 116.786 3.256 116.21 2.744C115.698 2.168 114.834 1.88 113.618 1.88H98.5463C97.3303 1.88 96.4343 2.168 95.8583 2.744C95.3463 3.256 95.0903 4.12 95.0903 5.336V52.856C95.0903 55.8 95.5063 58.488 96.3383 60.92C97.2343 63.288 98.7703 65.336 100.946 67.064C103.186 68.728 106.226 70.04 110.066 71C113.906 71.96 118.802 72.44 124.754 72.44C130.706 72.44 135.602 71.96 139.442 71C143.282 70.04 146.29 68.728 148.466 67.064C150.706 65.336 152.242 63.288 153.074 60.92C153.97 58.488 154.418 55.8 154.418 52.856ZM105.65 10.52H106.61V50.552C106.61 54.136 107.858 57.048 110.354 59.288C112.914 61.464 117.746 62.552 124.85 62.552C131.954 62.552 136.786 61.464 139.346 59.288C141.906 57.048 143.186 54.136 143.186 50.552V10.52H144.146V50.552C144.146 54.392 142.802 57.528 140.114 59.96C137.426 62.328 132.338 63.512 124.85 63.512C117.362 63.512 112.274 62.328 109.586 59.96C106.962 57.528 105.65 54.392 105.65 50.552V10.52ZM166.102 82.424C164.566 82.424 163.446 82.072 162.742 81.368C162.038 80.664 161.686 79.544 161.686 78.008V66.776C161.686 65.944 161.782 65.24 161.974 64.664C162.23 64.088 162.582 63.608 163.03 63.224L172.63 55.16C169.238 54.136 166.55 52.408 164.566 49.976C162.646 47.48 161.686 43.928 161.686 39.32V29.24C161.686 26.36 162.166 23.8 163.126 21.56C164.086 19.32 165.462 17.432 167.254 15.896L179.734 5.432C181.462 4.024 183.606 2.936 186.166 2.168C188.726 1.336 191.638 0.919998 194.902 0.919998H221.782C223.318 0.919998 224.438 1.272 225.142 1.976C225.846 2.68 226.198 3.8 226.198 5.336V16.76C226.198 17.592 226.07 18.296 225.814 18.872C225.622 19.448 225.302 19.928 224.854 20.312L216.214 27.512C220.246 28.408 223.478 30.104 225.91 32.6C228.406 35.032 229.654 38.84 229.654 44.024V54.104C229.654 56.984 229.174 59.544 228.214 61.784C227.254 64.024 225.846 65.912 223.99 67.448L211.606 77.816C209.814 79.288 207.638 80.408 205.078 81.176C202.518 82.008 199.638 82.424 196.438 82.424H166.102ZM208.822 71C214.966 71 219.798 69.56 223.318 66.68C226.902 63.736 228.694 59.544 228.694 54.104V44.024C228.694 38.648 227.318 34.808 224.566 32.504C221.814 30.2 218.198 28.728 213.718 28.088L199.414 26.168C198.582 26.104 197.942 25.784 197.494 25.208C197.046 24.632 196.822 23.928 196.822 23.096C196.822 22.264 197.046 21.592 197.494 21.08C197.942 20.504 198.582 20.216 199.414 20.216H221.782C222.998 20.216 223.862 19.96 224.374 19.448C224.95 18.872 225.238 17.976 225.238 16.76V5.336C225.238 4.12 224.95 3.256 224.374 2.744C223.862 2.168 222.998 1.88 221.782 1.88H194.902C188.694 1.88 183.83 3.352 180.31 6.296C176.79 9.176 175.03 13.336 175.03 18.776V28.856C175.03 34.232 176.374 38.072 179.062 40.376C181.814 42.68 185.43 44.152 189.91 44.792L204.31 46.808C205.142 46.872 205.75 47.16 206.134 47.672C206.582 48.184 206.806 48.984 206.806 50.072C206.806 50.84 206.582 51.512 206.134 52.088C205.75 52.6 205.142 52.856 204.31 52.856H178.486C177.27 52.856 176.374 53.144 175.798 53.72C175.286 54.232 175.03 55.096 175.03 56.312V67.544C175.03 68.76 175.286 69.656 175.798 70.232C176.374 70.744 177.27 71 178.486 71H208.822ZM216.598 10.52V11.48H195.286C192.598 11.48 190.454 12.216 188.854 13.688C187.254 15.16 186.454 17.016 186.454 19.256V27.128C186.454 29.368 186.902 30.936 187.798 31.832C188.694 32.728 189.878 33.304 191.35 33.56L211.606 37.688C213.526 38.072 215.094 38.904 216.31 40.184C217.59 41.464 218.23 43.768 218.23 47.096V52.664C218.23 55.48 217.27 57.816 215.35 59.672C213.43 61.464 210.838 62.36 207.574 62.36H183.67V61.4H207.574C210.518 61.4 212.854 60.6 214.582 59C216.374 57.336 217.27 55.224 217.27 52.664V47.096C217.27 44.088 216.726 42.04 215.638 40.952C214.614 39.8 213.206 39.032 211.414 38.648L191.158 34.52C189.494 34.2 188.118 33.56 187.03 32.6C186.006 31.576 185.494 29.752 185.494 27.128V19.256C185.494 16.696 186.39 14.616 188.182 13.016C189.974 11.352 192.342 10.52 195.286 10.52H216.598ZM30.6203 198.864C24.4123 198.864 19.2923 198.192 15.2603 196.848C11.2923 195.568 8.18825 193.84 5.94825 191.664C3.70825 189.488 2.14025 186.992 1.24425 184.176C0.41225 181.36 -0.00374973 178.448 -0.00374973 175.44V130.8C-0.00374973 129.968 0.0922502 129.264 0.28425 128.688C0.54025 128.112 0.89225 127.632 1.34025 127.248L13.7243 116.784C14.0443 116.528 14.4603 116.336 14.9723 116.208C15.5483 116.016 16.1563 115.92 16.7963 115.92H31.8683C33.4043 115.92 34.5243 116.272 35.2283 116.976C35.9323 117.68 36.2843 118.8 36.2843 120.336V164.112C36.2843 164.688 36.3803 165.232 36.5723 165.744C36.7643 166.192 37.1803 166.544 37.8203 166.8V130.8C37.8203 129.968 37.9163 129.264 38.1083 128.688C38.3003 128.112 38.5883 127.664 38.9723 127.344L39.0683 127.248L51.5483 116.784C51.8683 116.528 52.2843 116.336 52.7963 116.208C53.3083 116.016 53.9163 115.92 54.6203 115.92H69.2123C70.7483 115.92 71.8683 116.272 72.5723 116.976C73.2763 117.68 73.6283 118.8 73.6283 120.336V167.856C73.6283 170.8 73.2123 173.52 72.3803 176.016C71.5483 178.512 70.0443 180.656 67.8683 182.448L55.3883 192.816C53.1483 194.736 50.0443 196.208 46.0763 197.232C42.1083 198.32 36.9563 198.864 30.6203 198.864ZM72.6683 167.856V120.336C72.6683 119.12 72.3803 118.256 71.8043 117.744C71.2923 117.168 70.4283 116.88 69.2123 116.88H54.6203C53.4043 116.88 52.5083 117.168 51.9323 117.744C51.4203 118.256 51.1643 119.12 51.1643 120.336V164.112C51.1643 165.392 50.6843 166.48 49.7243 167.376C48.7643 168.208 46.5883 168.624 43.1963 168.624C39.8683 168.624 37.7243 168.208 36.7643 167.376C35.8043 166.48 35.3243 165.392 35.3243 164.112V120.336C35.3243 119.12 35.0363 118.256 34.4603 117.744C33.9483 117.168 33.0843 116.88 31.8683 116.88H16.7963C15.5803 116.88 14.6843 117.168 14.1083 117.744C13.5963 118.256 13.3403 119.12 13.3403 120.336V167.856C13.3403 170.8 13.7563 173.488 14.5883 175.92C15.4843 178.288 17.0203 180.336 19.1963 182.064C21.4363 183.728 24.4763 185.04 28.3163 186C32.1563 186.96 37.0523 187.44 43.0043 187.44C48.9563 187.44 53.8523 186.96 57.6923 186C61.5323 185.04 64.5403 183.728 66.7163 182.064C68.9563 180.336 70.4923 178.288 71.3243 175.92C72.2203 173.488 72.6683 170.8 72.6683 167.856ZM23.9003 125.52H24.8603V165.552C24.8603 169.136 26.1083 172.048 28.6043 174.288C31.1643 176.464 35.9963 177.552 43.1003 177.552C50.2043 177.552 55.0363 176.464 57.5963 174.288C60.1563 172.048 61.4363 169.136 61.4363 165.552V125.52H62.3963V165.552C62.3963 169.392 61.0523 172.528 58.3643 174.96C55.6763 177.328 50.5883 178.512 43.1003 178.512C35.6123 178.512 30.5243 177.328 27.8363 174.96C25.2123 172.528 23.9003 169.392 23.9003 165.552V125.52ZM128.8 149.04C129.952 149.04 130.784 148.784 131.296 148.272C131.808 147.76 132.608 146.672 133.696 145.008L145.408 127.152C145.792 126.512 146.208 126.096 146.656 125.904C147.168 125.648 147.68 125.52 148.192 125.52H149.824C150.72 125.52 151.36 125.776 151.744 126.288C152.192 126.736 152.416 127.472 152.416 128.496V177.36H151.456V128.496C151.456 127.984 151.328 127.536 151.072 127.152C150.88 126.704 150.464 126.48 149.824 126.48H148.384C147.936 126.48 147.552 126.544 147.232 126.672C146.912 126.8 146.56 127.184 146.176 127.824L134.464 145.488C133.312 147.216 132.416 148.4 131.776 149.04C131.2 149.68 130.208 150 128.8 150C127.392 150 126.368 149.68 125.728 149.04C125.152 148.4 124.288 147.216 123.136 145.488L111.424 127.824C111.04 127.184 110.656 126.8 110.272 126.672C109.952 126.544 109.568 126.48 109.12 126.48H107.68C107.04 126.48 106.624 126.704 106.432 127.152C106.24 127.536 106.144 127.984 106.144 128.496V177.36H105.184V128.496C105.184 127.472 105.376 126.736 105.76 126.288C106.208 125.776 106.848 125.52 107.68 125.52H109.312C109.824 125.52 110.336 125.648 110.848 125.904C111.36 126.096 111.808 126.512 112.192 127.152L123.904 145.008C124.992 146.672 125.792 147.76 126.304 148.272C126.816 148.784 127.648 149.04 128.8 149.04ZM112.768 186C113.984 186 114.848 185.744 115.36 185.232C115.936 184.656 116.224 183.76 116.224 182.544V148.752L121.888 159.216C122.464 160.304 123.136 161.104 123.904 161.616C124.736 162.064 125.76 162.288 126.976 162.288H130.816C132.032 162.288 133.024 162.064 133.792 161.616C134.624 161.104 135.328 160.304 135.904 159.216L141.568 148.752V182.544C141.568 183.76 141.824 184.656 142.336 185.232C142.912 185.744 143.808 186 145.024 186H159.808C161.024 186 161.888 185.744 162.4 185.232C162.976 184.656 163.264 183.76 163.264 182.544V120.336C163.264 119.12 162.976 118.256 162.4 117.744C161.888 117.168 161.024 116.88 159.808 116.88H144.256C143.232 116.88 142.368 117.104 141.664 117.552C141.024 118 140.416 118.736 139.84 119.76L131.296 135.408C130.976 135.984 130.688 136.4 130.432 136.656C130.24 136.912 129.952 137.04 129.568 137.04H128.704C128.32 137.04 128 136.912 127.744 136.656C127.552 136.4 127.296 135.984 126.976 135.408L118.336 119.76C117.76 118.736 117.12 118 116.416 117.552C115.776 117.104 114.944 116.88 113.92 116.88H98.4638C97.2478 116.88 96.3518 117.168 95.7758 117.744C95.2638 118.256 95.0078 119.12 95.0078 120.336V182.544C95.0078 183.76 95.2638 184.656 95.7758 185.232C96.3518 185.744 97.2478 186 98.4638 186H112.768ZM115.84 186.096L103.36 196.464C103.104 196.72 102.688 196.944 102.112 197.136C101.6 197.328 101.024 197.424 100.384 197.424H86.0798C84.5438 197.424 83.4238 197.072 82.7198 196.368C82.0158 195.664 81.6638 194.544 81.6638 193.008V130.8C81.6638 129.968 81.7598 129.264 81.9518 128.688C82.2078 128.112 82.5598 127.632 83.0078 127.248L95.3918 116.784C95.7118 116.528 96.1278 116.336 96.6398 116.208C97.2158 116.016 97.8238 115.92 98.4638 115.92H113.92C115.136 115.92 116.128 116.176 116.896 116.688C117.728 117.2 118.496 118.064 119.2 119.28L125.728 131.28L126.592 129.744C126.848 129.296 127.104 128.88 127.36 128.496C127.68 128.048 128 127.696 128.32 127.44L140.704 117.072C141.216 116.688 141.728 116.4 142.24 116.208C142.816 116.016 143.488 115.92 144.256 115.92H159.808C161.344 115.92 162.464 116.272 163.168 116.976C163.872 117.68 164.224 118.8 164.224 120.336V182.544C164.224 183.376 164.096 184.08 163.84 184.656C163.648 185.232 163.328 185.712 162.88 186.096L150.4 196.464C150.144 196.72 149.728 196.944 149.152 197.136C148.64 197.328 148.064 197.424 147.424 197.424H132.64C131.04 197.424 129.888 197.072 129.184 196.368C128.544 195.664 128.224 194.544 128.224 193.008V167.664L122.56 172.368C122.048 172.816 121.44 173.168 120.736 173.424C120.096 173.616 119.328 173.712 118.432 173.712H117.184V182.544C117.184 183.376 117.056 184.08 116.8 184.656C116.608 185.232 116.288 185.712 115.84 186.096ZM221.749 197.424H177.205C175.669 197.424 174.549 197.072 173.845 196.368C173.141 195.664 172.789 194.544 172.789 193.008V130.8C172.789 129.968 172.885 129.264 173.077 128.688C173.333 128.112 173.685 127.632 174.133 127.248L186.517 116.784C186.837 116.528 187.253 116.336 187.765 116.208C188.341 116.016 188.949 115.92 189.589 115.92H234.133C235.669 115.92 236.789 116.272 237.493 116.976C238.197 117.68 238.549 118.8 238.549 120.336V131.568C238.549 132.4 238.421 133.104 238.165 133.68C237.973 134.256 237.653 134.736 237.205 135.12L228.949 141.936C229.589 142.256 230.037 142.736 230.293 143.376C230.613 144.016 230.773 144.848 230.773 145.872V156.144C230.773 156.976 230.645 157.68 230.389 158.256C230.197 158.832 229.877 159.312 229.429 159.696L220.885 166.896H234.133C235.669 166.896 236.789 167.248 237.493 167.952C238.197 168.656 238.549 169.776 238.549 171.312V182.544C238.549 183.376 238.421 184.08 238.165 184.656C237.973 185.232 237.653 185.712 237.205 186.096L224.725 196.464C224.469 196.72 224.053 196.944 223.477 197.136C222.965 197.328 222.389 197.424 221.749 197.424ZM234.133 186C235.349 186 236.213 185.744 236.725 185.232C237.301 184.656 237.589 183.76 237.589 182.544V171.312C237.589 170.096 237.301 169.232 236.725 168.72C236.213 168.144 235.349 167.856 234.133 167.856H207.637V159.6H226.357C227.573 159.6 228.437 159.344 228.949 158.832C229.525 158.256 229.813 157.36 229.813 156.144V145.872C229.813 144.656 229.525 143.792 228.949 143.28C228.437 142.704 227.573 142.416 226.357 142.416H207.637V135.024H234.133C235.349 135.024 236.213 134.768 236.725 134.256C237.301 133.68 237.589 132.784 237.589 131.568V120.336C237.589 119.12 237.301 118.256 236.725 117.744C236.213 117.168 235.349 116.88 234.133 116.88H189.589C188.373 116.88 187.477 117.168 186.901 117.744C186.389 118.256 186.133 119.12 186.133 120.336V182.544C186.133 183.76 186.389 184.656 186.901 185.232C187.477 185.744 188.373 186 189.589 186H234.133ZM228.949 176.4V177.36H196.597V125.52H228.949V126.48H197.557V150.576H221.173V151.536H197.557V176.4H228.949Z" fill="#FE693C"/>
</svg>
