<svg width="38" height="31" viewBox="0 0 38 31" fill="none" xmlns="http://www.w3.org/2000/svg">
<path d="M2.50223 12.785C2.26223 12.785 2.08723 12.73 1.97723 12.62C1.86723 12.51 1.81223 12.335 1.81223 12.095V10.34C1.81223 10.21 1.82723 10.1 1.85723 10.01C1.89723 9.92 1.95223 9.845 2.02223 9.785L3.52223 8.525C2.99223 8.365 2.57223 8.095 2.26223 7.715C1.96223 7.325 1.81223 6.77 1.81223 6.05V4.475C1.81223 4.025 1.88723 3.625 2.03723 3.275C2.18723 2.925 2.40223 2.63 2.68223 2.39L4.63223 0.755C4.90223 0.534999 5.23723 0.365 5.63723 0.245C6.03723 0.115 6.49223 0.0499997 7.00223 0.0499997H11.2022C11.4422 0.0499997 11.6172 0.105 11.7272 0.214999C11.8372 0.325 11.8922 0.5 11.8922 0.74V2.525C11.8922 2.655 11.8722 2.765 11.8322 2.855C11.8022 2.945 11.7522 3.02 11.6822 3.08L10.3322 4.205C10.9622 4.345 11.4672 4.61 11.8472 5C12.2372 5.38 12.4322 5.975 12.4322 6.785V8.36C12.4322 8.81 12.3572 9.21 12.2072 9.56C12.0572 9.91 11.8372 10.205 11.5472 10.445L9.61223 12.065C9.33223 12.295 8.99223 12.47 8.59223 12.59C8.19223 12.72 7.74223 12.785 7.24223 12.785H2.50223ZM9.17723 11C10.1372 11 10.8922 10.775 11.4422 10.325C12.0022 9.865 12.2822 9.21 12.2822 8.36V6.785C12.2822 5.945 12.0672 5.345 11.6372 4.985C11.2072 4.625 10.6422 4.395 9.94223 4.295L7.70723 3.995C7.57723 3.985 7.47723 3.935 7.40723 3.845C7.33723 3.755 7.30223 3.645 7.30223 3.515C7.30223 3.385 7.33723 3.28 7.40723 3.2C7.47723 3.11 7.57723 3.065 7.70723 3.065H11.2022C11.3922 3.065 11.5272 3.025 11.6072 2.945C11.6972 2.855 11.7422 2.715 11.7422 2.525V0.74C11.7422 0.55 11.6972 0.415 11.6072 0.335C11.5272 0.245 11.3922 0.2 11.2022 0.2H7.00223C6.03223 0.2 5.27223 0.43 4.72223 0.89C4.17223 1.34 3.89723 1.99 3.89723 2.84V4.415C3.89723 5.255 4.10723 5.855 4.52723 6.215C4.95723 6.575 5.52223 6.805 6.22223 6.905L8.47223 7.22C8.60223 7.23 8.69723 7.275 8.75723 7.355C8.82723 7.435 8.86223 7.56 8.86223 7.73C8.86223 7.85 8.82723 7.955 8.75723 8.045C8.69723 8.125 8.60223 8.165 8.47223 8.165H4.43723C4.24723 8.165 4.10723 8.21 4.01723 8.3C3.93723 8.38 3.89723 8.515 3.89723 8.705V10.46C3.89723 10.65 3.93723 10.79 4.01723 10.88C4.10723 10.96 4.24723 11 4.43723 11H9.17723ZM10.3922 1.55V1.7H7.06223C6.64223 1.7 6.30723 1.815 6.05723 2.045C5.80723 2.275 5.68223 2.565 5.68223 2.915V4.145C5.68223 4.495 5.75223 4.74 5.89223 4.88C6.03223 5.02 6.21723 5.11 6.44723 5.15L9.61223 5.795C9.91223 5.855 10.1572 5.985 10.3472 6.185C10.5472 6.385 10.6472 6.745 10.6472 7.265V8.135C10.6472 8.575 10.4972 8.94 10.1972 9.23C9.89723 9.51 9.49223 9.65 8.98223 9.65H5.24723V9.5H8.98223C9.44223 9.5 9.80723 9.375 10.0772 9.125C10.3572 8.865 10.4972 8.535 10.4972 8.135V7.265C10.4972 6.795 10.4122 6.475 10.2422 6.305C10.0822 6.125 9.86223 6.005 9.58223 5.945L6.41723 5.3C6.15723 5.25 5.94223 5.15 5.77223 5C5.61223 4.84 5.53223 4.555 5.53223 4.145V2.915C5.53223 2.515 5.67223 2.19 5.95223 1.94C6.23223 1.68 6.60223 1.55 7.06223 1.55H10.3922ZM18.0422 13.01C17.0722 13.01 16.2722 12.905 15.6422 12.695C15.0222 12.495 14.5372 12.225 14.1872 11.885C13.8372 11.545 13.5922 11.155 13.4522 10.715C13.3222 10.275 13.2572 9.82 13.2572 9.35V2.375C13.2572 2.245 13.2722 2.135 13.3022 2.045C13.3422 1.955 13.3972 1.88 13.4672 1.82L15.4022 0.185C15.4522 0.145 15.5172 0.114999 15.5972 0.0949991C15.6872 0.0649995 15.7822 0.0499997 15.8822 0.0499997H18.2372C18.4772 0.0499997 18.6522 0.105 18.7622 0.214999C18.8722 0.325 18.9272 0.5 18.9272 0.74V7.58C18.9272 7.67 18.9422 7.755 18.9722 7.835C19.0022 7.905 19.0672 7.96 19.1672 8V2.375C19.1672 2.245 19.1822 2.135 19.2122 2.045C19.2422 1.955 19.2872 1.885 19.3472 1.835L19.3622 1.82L21.3122 0.185C21.3622 0.145 21.4272 0.114999 21.5072 0.0949991C21.5872 0.0649995 21.6822 0.0499997 21.7922 0.0499997H24.0722C24.3122 0.0499997 24.4872 0.105 24.5972 0.214999C24.7072 0.325 24.7622 0.5 24.7622 0.74V8.165C24.7622 8.625 24.6972 9.05 24.5672 9.44C24.4372 9.83 24.2022 10.165 23.8622 10.445L21.9122 12.065C21.5622 12.365 21.0772 12.595 20.4572 12.755C19.8372 12.925 19.0322 13.01 18.0422 13.01ZM24.6122 8.165V0.74C24.6122 0.55 24.5672 0.415 24.4772 0.335C24.3972 0.245 24.2622 0.2 24.0722 0.2H21.7922C21.6022 0.2 21.4622 0.245 21.3722 0.335C21.2922 0.415 21.2522 0.55 21.2522 0.74V7.58C21.2522 7.78 21.1772 7.95 21.0272 8.09C20.8772 8.22 20.5372 8.285 20.0072 8.285C19.4872 8.285 19.1522 8.22 19.0022 8.09C18.8522 7.95 18.7772 7.78 18.7772 7.58V0.74C18.7772 0.55 18.7322 0.415 18.6422 0.335C18.5622 0.245 18.4272 0.2 18.2372 0.2H15.8822C15.6922 0.2 15.5522 0.245 15.4622 0.335C15.3822 0.415 15.3422 0.55 15.3422 0.74V8.165C15.3422 8.625 15.4072 9.045 15.5372 9.425C15.6772 9.795 15.9172 10.115 16.2572 10.385C16.6072 10.645 17.0822 10.85 17.6822 11C18.2822 11.15 19.0472 11.225 19.9772 11.225C20.9072 11.225 21.6722 11.15 22.2722 11C22.8722 10.85 23.3422 10.645 23.6822 10.385C24.0322 10.115 24.2722 9.795 24.4022 9.425C24.5422 9.045 24.6122 8.625 24.6122 8.165ZM16.9922 1.55H17.1422V7.805C17.1422 8.365 17.3372 8.82 17.7272 9.17C18.1272 9.51 18.8822 9.68 19.9922 9.68C21.1022 9.68 21.8572 9.51 22.2572 9.17C22.6572 8.82 22.8572 8.365 22.8572 7.805V1.55H23.0072V7.805C23.0072 8.405 22.7972 8.895 22.3772 9.275C21.9572 9.645 21.1622 9.83 19.9922 9.83C18.8222 9.83 18.0272 9.645 17.6072 9.275C17.1972 8.895 16.9922 8.405 16.9922 7.805V1.55ZM26.4378 12.785C26.1978 12.785 26.0228 12.73 25.9128 12.62C25.8028 12.51 25.7478 12.335 25.7478 12.095V10.34C25.7478 10.21 25.7628 10.1 25.7928 10.01C25.8328 9.92 25.8878 9.845 25.9578 9.785L27.4578 8.525C26.9278 8.365 26.5078 8.095 26.1978 7.715C25.8978 7.325 25.7478 6.77 25.7478 6.05V4.475C25.7478 4.025 25.8228 3.625 25.9728 3.275C26.1228 2.925 26.3378 2.63 26.6178 2.39L28.5678 0.755C28.8378 0.534999 29.1728 0.365 29.5728 0.245C29.9728 0.115 30.4278 0.0499997 30.9378 0.0499997H35.1378C35.3778 0.0499997 35.5528 0.105 35.6628 0.214999C35.7728 0.325 35.8278 0.5 35.8278 0.74V2.525C35.8278 2.655 35.8078 2.765 35.7678 2.855C35.7378 2.945 35.6878 3.02 35.6178 3.08L34.2678 4.205C34.8978 4.345 35.4028 4.61 35.7828 5C36.1728 5.38 36.3678 5.975 36.3678 6.785V8.36C36.3678 8.81 36.2928 9.21 36.1428 9.56C35.9928 9.91 35.7728 10.205 35.4828 10.445L33.5478 12.065C33.2678 12.295 32.9278 12.47 32.5278 12.59C32.1278 12.72 31.6778 12.785 31.1778 12.785H26.4378ZM33.1128 11C34.0728 11 34.8278 10.775 35.3778 10.325C35.9378 9.865 36.2178 9.21 36.2178 8.36V6.785C36.2178 5.945 36.0028 5.345 35.5728 4.985C35.1428 4.625 34.5778 4.395 33.8778 4.295L31.6428 3.995C31.5128 3.985 31.4128 3.935 31.3428 3.845C31.2728 3.755 31.2378 3.645 31.2378 3.515C31.2378 3.385 31.2728 3.28 31.3428 3.2C31.4128 3.11 31.5128 3.065 31.6428 3.065H35.1378C35.3278 3.065 35.4628 3.025 35.5428 2.945C35.6328 2.855 35.6778 2.715 35.6778 2.525V0.74C35.6778 0.55 35.6328 0.415 35.5428 0.335C35.4628 0.245 35.3278 0.2 35.1378 0.2H30.9378C29.9678 0.2 29.2078 0.43 28.6578 0.89C28.1078 1.34 27.8328 1.99 27.8328 2.84V4.415C27.8328 5.255 28.0428 5.855 28.4628 6.215C28.8928 6.575 29.4578 6.805 30.1578 6.905L32.4078 7.22C32.5378 7.23 32.6328 7.275 32.6928 7.355C32.7628 7.435 32.7978 7.56 32.7978 7.73C32.7978 7.85 32.7628 7.955 32.6928 8.045C32.6328 8.125 32.5378 8.165 32.4078 8.165H28.3728C28.1828 8.165 28.0428 8.21 27.9528 8.3C27.8728 8.38 27.8328 8.515 27.8328 8.705V10.46C27.8328 10.65 27.8728 10.79 27.9528 10.88C28.0428 10.96 28.1828 11 28.3728 11H33.1128ZM34.3278 1.55V1.7H30.9978C30.5778 1.7 30.2428 1.815 29.9928 2.045C29.7428 2.275 29.6178 2.565 29.6178 2.915V4.145C29.6178 4.495 29.6878 4.74 29.8278 4.88C29.9678 5.02 30.1528 5.11 30.3828 5.15L33.5478 5.795C33.8478 5.855 34.0928 5.985 34.2828 6.185C34.4828 6.385 34.5828 6.745 34.5828 7.265V8.135C34.5828 8.575 34.4328 8.94 34.1328 9.23C33.8328 9.51 33.4278 9.65 32.9178 9.65H29.1828V9.5H32.9178C33.3778 9.5 33.7428 9.375 34.0128 9.125C34.2928 8.865 34.4328 8.535 34.4328 8.135V7.265C34.4328 6.795 34.3478 6.475 34.1778 6.305C34.0178 6.125 33.7978 6.005 33.5178 5.945L30.3528 5.3C30.0928 5.25 29.8778 5.15 29.7078 5C29.5478 4.84 29.4678 4.555 29.4678 4.145V2.915C29.4678 2.515 29.6078 2.19 29.8878 1.94C30.1678 1.68 30.5378 1.55 30.9978 1.55H34.3278ZM5.26879 31.01C4.29879 31.01 3.49879 30.905 2.86879 30.695C2.24879 30.495 1.76379 30.225 1.41379 29.885C1.06379 29.545 0.818789 29.155 0.678789 28.715C0.548789 28.275 0.483789 27.82 0.483789 27.35V20.375C0.483789 20.245 0.498789 20.135 0.528789 20.045C0.568789 19.955 0.623789 19.88 0.693789 19.82L2.62879 18.185C2.67879 18.145 2.74379 18.115 2.82379 18.095C2.91379 18.065 3.00879 18.05 3.10879 18.05H5.46379C5.70379 18.05 5.87879 18.105 5.98879 18.215C6.09879 18.325 6.15379 18.5 6.15379 18.74V25.58C6.15379 25.67 6.16879 25.755 6.19879 25.835C6.22879 25.905 6.29379 25.96 6.39379 26V20.375C6.39379 20.245 6.40879 20.135 6.43879 20.045C6.46879 19.955 6.51379 19.885 6.57379 19.835L6.58879 19.82L8.53879 18.185C8.58879 18.145 8.65379 18.115 8.73379 18.095C8.81379 18.065 8.90879 18.05 9.01879 18.05H11.2988C11.5388 18.05 11.7138 18.105 11.8238 18.215C11.9338 18.325 11.9888 18.5 11.9888 18.74V26.165C11.9888 26.625 11.9238 27.05 11.7938 27.44C11.6638 27.83 11.4288 28.165 11.0888 28.445L9.13879 30.065C8.78879 30.365 8.30379 30.595 7.68379 30.755C7.06379 30.925 6.25879 31.01 5.26879 31.01ZM11.8388 26.165V18.74C11.8388 18.55 11.7938 18.415 11.7038 18.335C11.6238 18.245 11.4888 18.2 11.2988 18.2H9.01879C8.82879 18.2 8.68879 18.245 8.59879 18.335C8.51879 18.415 8.47879 18.55 8.47879 18.74V25.58C8.47879 25.78 8.40379 25.95 8.25379 26.09C8.10379 26.22 7.76379 26.285 7.23379 26.285C6.71379 26.285 6.37879 26.22 6.22879 26.09C6.07879 25.95 6.00379 25.78 6.00379 25.58V18.74C6.00379 18.55 5.95879 18.415 5.86879 18.335C5.78879 18.245 5.65379 18.2 5.46379 18.2H3.10879C2.91879 18.2 2.77879 18.245 2.68879 18.335C2.60879 18.415 2.56879 18.55 2.56879 18.74V26.165C2.56879 26.625 2.63379 27.045 2.76379 27.425C2.90379 27.795 3.14379 28.115 3.48379 28.385C3.83379 28.645 4.30879 28.85 4.90879 29C5.50879 29.15 6.27379 29.225 7.20379 29.225C8.13379 29.225 8.89879 29.15 9.49879 29C10.0988 28.85 10.5688 28.645 10.9088 28.385C11.2588 28.115 11.4988 27.795 11.6288 27.425C11.7688 27.045 11.8388 26.625 11.8388 26.165ZM4.21879 19.55H4.36879V25.805C4.36879 26.365 4.56379 26.82 4.95379 27.17C5.35379 27.51 6.10879 27.68 7.21879 27.68C8.32879 27.68 9.08379 27.51 9.48379 27.17C9.88379 26.82 10.0838 26.365 10.0838 25.805V19.55H10.2338V25.805C10.2338 26.405 10.0238 26.895 9.60379 27.275C9.18379 27.645 8.38879 27.83 7.21879 27.83C6.04879 27.83 5.25379 27.645 4.83379 27.275C4.42379 26.895 4.21879 26.405 4.21879 25.805V19.55ZM20.6093 23.225C20.7893 23.225 20.9193 23.185 20.9993 23.105C21.0793 23.025 21.2043 22.855 21.3743 22.595L23.2043 19.805C23.2643 19.705 23.3293 19.64 23.3993 19.61C23.4793 19.57 23.5593 19.55 23.6393 19.55H23.8943C24.0343 19.55 24.1343 19.59 24.1943 19.67C24.2643 19.74 24.2993 19.855 24.2993 20.015V27.65H24.1493V20.015C24.1493 19.935 24.1293 19.865 24.0893 19.805C24.0593 19.735 23.9943 19.7 23.8943 19.7H23.6693C23.5993 19.7 23.5393 19.71 23.4893 19.73C23.4393 19.75 23.3843 19.81 23.3243 19.91L21.4943 22.67C21.3143 22.94 21.1743 23.125 21.0743 23.225C20.9843 23.325 20.8293 23.375 20.6093 23.375C20.3893 23.375 20.2293 23.325 20.1293 23.225C20.0393 23.125 19.9043 22.94 19.7243 22.67L17.8943 19.91C17.8343 19.81 17.7743 19.75 17.7143 19.73C17.6643 19.71 17.6043 19.7 17.5343 19.7H17.3093C17.2093 19.7 17.1443 19.735 17.1143 19.805C17.0843 19.865 17.0693 19.935 17.0693 20.015V27.65H16.9193V20.015C16.9193 19.855 16.9493 19.74 17.0093 19.67C17.0793 19.59 17.1793 19.55 17.3093 19.55H17.5643C17.6443 19.55 17.7243 19.57 17.8043 19.61C17.8843 19.64 17.9543 19.705 18.0143 19.805L19.8443 22.595C20.0143 22.855 20.1393 23.025 20.2193 23.105C20.2993 23.185 20.4293 23.225 20.6093 23.225ZM18.1043 29C18.2943 29 18.4293 28.96 18.5093 28.88C18.5993 28.79 18.6443 28.65 18.6443 28.46V23.18L19.5293 24.815C19.6193 24.985 19.7243 25.11 19.8443 25.19C19.9743 25.26 20.1343 25.295 20.3243 25.295H20.9243C21.1143 25.295 21.2693 25.26 21.3893 25.19C21.5193 25.11 21.6293 24.985 21.7193 24.815L22.6043 23.18V28.46C22.6043 28.65 22.6443 28.79 22.7243 28.88C22.8143 28.96 22.9543 29 23.1443 29H25.4543C25.6443 29 25.7793 28.96 25.8593 28.88C25.9493 28.79 25.9943 28.65 25.9943 28.46V18.74C25.9943 18.55 25.9493 18.415 25.8593 18.335C25.7793 18.245 25.6443 18.2 25.4543 18.2H23.0243C22.8643 18.2 22.7293 18.235 22.6193 18.305C22.5193 18.375 22.4243 18.49 22.3343 18.65L20.9993 21.095C20.9493 21.185 20.9043 21.25 20.8643 21.29C20.8343 21.33 20.7893 21.35 20.7293 21.35H20.5943C20.5343 21.35 20.4843 21.33 20.4443 21.29C20.4143 21.25 20.3743 21.185 20.3243 21.095L18.9743 18.65C18.8843 18.49 18.7843 18.375 18.6743 18.305C18.5743 18.235 18.4443 18.2 18.2843 18.2H15.8693C15.6793 18.2 15.5393 18.245 15.4493 18.335C15.3693 18.415 15.3293 18.55 15.3293 18.74V28.46C15.3293 28.65 15.3693 28.79 15.4493 28.88C15.5393 28.96 15.6793 29 15.8693 29H18.1043ZM18.5843 29.015L16.6343 30.635C16.5943 30.675 16.5293 30.71 16.4393 30.74C16.3593 30.77 16.2693 30.785 16.1693 30.785H13.9343C13.6943 30.785 13.5193 30.73 13.4093 30.62C13.2993 30.51 13.2443 30.335 13.2443 30.095V20.375C13.2443 20.245 13.2593 20.135 13.2893 20.045C13.3293 19.955 13.3843 19.88 13.4543 19.82L15.3893 18.185C15.4393 18.145 15.5043 18.115 15.5843 18.095C15.6743 18.065 15.7693 18.05 15.8693 18.05H18.2843C18.4743 18.05 18.6293 18.09 18.7493 18.17C18.8793 18.25 18.9993 18.385 19.1093 18.575L20.1293 20.45L20.2643 20.21C20.3043 20.14 20.3443 20.075 20.3843 20.015C20.4343 19.945 20.4843 19.89 20.5343 19.85L22.4693 18.23C22.5493 18.17 22.6293 18.125 22.7093 18.095C22.7993 18.065 22.9043 18.05 23.0243 18.05H25.4543C25.6943 18.05 25.8693 18.105 25.9793 18.215C26.0893 18.325 26.1443 18.5 26.1443 18.74V28.46C26.1443 28.59 26.1243 28.7 26.0843 28.79C26.0543 28.88 26.0043 28.955 25.9343 29.015L23.9843 30.635C23.9443 30.675 23.8793 30.71 23.7893 30.74C23.7093 30.77 23.6193 30.785 23.5193 30.785H21.2093C20.9593 30.785 20.7793 30.73 20.6693 30.62C20.5693 30.51 20.5193 30.335 20.5193 30.095V26.135L19.6343 26.87C19.5543 26.94 19.4593 26.995 19.3493 27.035C19.2493 27.065 19.1293 27.08 18.9893 27.08H18.7943V28.46C18.7943 28.59 18.7743 28.7 18.7343 28.79C18.7043 28.88 18.6543 28.955 18.5843 29.015ZM35.1326 30.785H28.1726C27.9326 30.785 27.7576 30.73 27.6476 30.62C27.5376 30.51 27.4826 30.335 27.4826 30.095V20.375C27.4826 20.245 27.4976 20.135 27.5276 20.045C27.5676 19.955 27.6226 19.88 27.6926 19.82L29.6276 18.185C29.6776 18.145 29.7426 18.115 29.8226 18.095C29.9126 18.065 30.0076 18.05 30.1076 18.05H37.0676C37.3076 18.05 37.4826 18.105 37.5926 18.215C37.7026 18.325 37.7576 18.5 37.7576 18.74V20.495C37.7576 20.625 37.7376 20.735 37.6976 20.825C37.6676 20.915 37.6176 20.99 37.5476 21.05L36.2576 22.115C36.3576 22.165 36.4276 22.24 36.4676 22.34C36.5176 22.44 36.5426 22.57 36.5426 22.73V24.335C36.5426 24.465 36.5226 24.575 36.4826 24.665C36.4526 24.755 36.4026 24.83 36.3326 24.89L34.9976 26.015H37.0676C37.3076 26.015 37.4826 26.07 37.5926 26.18C37.7026 26.29 37.7576 26.465 37.7576 26.705V28.46C37.7576 28.59 37.7376 28.7 37.6976 28.79C37.6676 28.88 37.6176 28.955 37.5476 29.015L35.5976 30.635C35.5576 30.675 35.4926 30.71 35.4026 30.74C35.3226 30.77 35.2326 30.785 35.1326 30.785ZM37.0676 29C37.2576 29 37.3926 28.96 37.4726 28.88C37.5626 28.79 37.6076 28.65 37.6076 28.46V26.705C37.6076 26.515 37.5626 26.38 37.4726 26.3C37.3926 26.21 37.2576 26.165 37.0676 26.165H32.9276V24.875H35.8526C36.0426 24.875 36.1776 24.835 36.2576 24.755C36.3476 24.665 36.3926 24.525 36.3926 24.335V22.73C36.3926 22.54 36.3476 22.405 36.2576 22.325C36.1776 22.235 36.0426 22.19 35.8526 22.19H32.9276V21.035H37.0676C37.2576 21.035 37.3926 20.995 37.4726 20.915C37.5626 20.825 37.6076 20.685 37.6076 20.495V18.74C37.6076 18.55 37.5626 18.415 37.4726 18.335C37.3926 18.245 37.2576 18.2 37.0676 18.2H30.1076C29.9176 18.2 29.7776 18.245 29.6876 18.335C29.6076 18.415 29.5676 18.55 29.5676 18.74V28.46C29.5676 28.65 29.6076 28.79 29.6876 28.88C29.7776 28.96 29.9176 29 30.1076 29H37.0676ZM36.2576 27.5V27.65H31.2026V19.55H36.2576V19.7H31.3526V23.465H35.0426V23.615H31.3526V27.5H36.2576Z" fill="#FE693C"/>
</svg>
