<svg width="30" height="33" viewBox="0 0 30 33" fill="none" xmlns="http://www.w3.org/2000/svg">
<path d="M22 0C26.4183 0 30 3.58172 30 8V22C30 26.4183 26.4183 30 22 30H8C3.58172 30 2.25497e-07 26.4183 0 22V8C0 3.58172 3.58172 2.2549e-07 8 0H22ZM14.6758 6C14.7033 6.1239 14.738 6.35129 14.7793 6.68164C14.8206 6.99837 14.8543 7.37095 14.8818 7.79785C14.8922 7.9531 14.8998 8.1667 14.9102 8.43848C14.2946 8.44031 13.6447 8.44642 12.9609 8.45801C12.1485 8.47178 11.3224 8.48623 10.4824 8.5C9.6424 8.51377 8.8366 8.52724 8.06543 8.54102C7.29434 8.55478 6.60587 8.56152 6 8.56152L6.06152 11.0615C6.84647 11.0064 7.68018 10.965 8.56152 10.9375C9.4428 10.8962 10.3585 10.8615 11.3086 10.834C12.2587 10.8064 13.2158 10.7853 14.1797 10.7715C14.4397 10.7641 14.699 10.7603 14.957 10.7549C14.9617 11.0543 14.9648 11.3561 14.9648 11.6602V12.1387C14.7049 12.0963 14.4297 12.0732 14.1387 12.0732C13.3813 12.0732 12.6861 12.2389 12.0527 12.5693C11.433 12.8861 10.9372 13.3337 10.5654 13.9121C10.1937 14.4767 10.0078 15.1516 10.0078 15.9365C10.0079 16.5698 10.1109 17.1208 10.3174 17.5889C10.5376 18.0568 10.8267 18.449 11.1846 18.7656C11.5426 19.0824 11.9287 19.324 12.3418 19.4893C12.7686 19.6544 13.1751 19.7373 13.5605 19.7373C13.8975 19.7373 14.2106 19.701 14.501 19.6348C14.3168 19.8354 14.1137 20.0215 13.8906 20.1914C13.3261 20.632 12.6654 20.997 11.9082 21.2861C11.1508 21.5753 10.3306 21.8093 9.44922 21.9883L11.6602 24.1777C12.9269 23.8197 13.9804 23.3585 14.8203 22.7939C15.6741 22.2293 16.349 21.6026 16.8447 20.9141C17.3542 20.2118 17.7191 19.4954 17.9395 18.7656C18.1597 18.0359 18.2695 17.3338 18.2695 16.6592C18.2695 15.7917 18.1116 15.0137 17.7949 14.3252C17.7166 14.1472 17.6268 13.979 17.5273 13.8203C17.5267 13.7959 17.5271 13.7709 17.5264 13.7461C17.5264 13.2368 17.5196 12.7 17.5059 12.1357V10.7324C18.8293 10.735 19.9654 10.7468 20.9141 10.7715C21.9744 10.7853 22.8284 10.8064 23.4756 10.834L23.4961 8.39648H20.666C20.0601 8.39648 19.4468 8.40322 18.8271 8.41699H17.5098C17.513 8.16483 17.5176 7.95101 17.5264 7.77637C17.5401 7.66625 17.5536 7.49436 17.5674 7.26074C17.5812 7.01287 17.5956 6.77122 17.6094 6.53711C17.6369 6.28939 17.6571 6.11012 17.6709 6H14.6758ZM14.0762 14.2422C14.5306 14.2422 14.9167 14.4078 15.2334 14.7383C15.3105 14.8154 15.3774 14.902 15.4365 14.9971C15.5042 15.4304 15.5129 15.7987 15.4609 16.1016C15.3783 16.5833 15.2058 16.9272 14.9443 17.1338C14.6965 17.3404 14.4067 17.4443 14.0762 17.4443C13.6633 17.4442 13.2913 17.3065 12.9609 17.0312C12.6442 16.7421 12.4863 16.3627 12.4863 15.8945C12.4864 15.5368 12.5617 15.2341 12.7129 14.9863C12.8644 14.7385 13.0646 14.5517 13.3125 14.4277C13.5601 14.304 13.8148 14.2423 14.0762 14.2422Z" fill="#999999"/>
</svg>
