<svg width="198" height="36" viewBox="0 0 198 36" fill="none" xmlns="http://www.w3.org/2000/svg">
<path d="M13.625 35.7969C6.21875 35.7969 1.4375 31.9062 0.945312 26.3984L0.921875 26.1406H5.14062L5.16406 26.3984C5.46875 29.7734 8.98438 31.9062 13.8594 31.9062C18.4531 31.9062 21.8047 29.5391 21.8047 26.0938V26.0703C21.8047 23.2578 19.8594 21.3359 15.2188 20.3047L11.4688 19.4844C4.69531 17.9844 1.76562 14.8672 1.76562 9.96875V9.94531C1.78906 4.34375 6.6875 0.382812 13.6719 0.382812C20.4219 0.382812 25.1328 4.36719 25.4844 9.40625L25.5078 9.73438H21.2891L21.2422 9.42969C20.7734 6.45312 17.9609 4.25 13.5547 4.27344C9.33594 4.29688 6.07812 6.28906 6.07812 9.82812V9.85156C6.07812 12.5469 7.92969 14.375 12.5234 15.3828L16.2734 16.2266C23.3281 17.7969 26.1172 20.6328 26.1172 25.5078V25.5312C26.1172 31.8594 21.1719 35.7969 13.625 35.7969ZM46.5547 35.7969C38.1641 35.7969 33.1016 30.7344 33.1016 23.375V1.17969H37.3203V23.0938C37.3203 28.2969 40.6953 31.9062 46.5547 31.9062C52.4141 31.9062 55.7422 28.2969 55.7422 23.0938V1.17969H59.9609V23.375C59.9609 30.7344 54.9453 35.7969 46.5547 35.7969ZM79.625 35.7969C72.2188 35.7969 67.4375 31.9062 66.9453 26.3984L66.9219 26.1406H71.1406L71.1641 26.3984C71.4688 29.7734 74.9844 31.9062 79.8594 31.9062C84.4531 31.9062 87.8047 29.5391 87.8047 26.0938V26.0703C87.8047 23.2578 85.8594 21.3359 81.2188 20.3047L77.4688 19.4844C70.6953 17.9844 67.7656 14.8672 67.7656 9.96875V9.94531C67.7891 4.34375 72.6875 0.382812 79.6719 0.382812C86.4219 0.382812 91.1328 4.36719 91.4844 9.40625L91.5078 9.73438H87.2891L87.2422 9.42969C86.7734 6.45312 83.9609 4.25 79.5547 4.27344C75.3359 4.29688 72.0781 6.28906 72.0781 9.82812V9.85156C72.0781 12.5469 73.9297 14.375 78.5234 15.3828L82.2734 16.2266C89.3281 17.7969 92.1172 20.6328 92.1172 25.5078V25.5312C92.1172 31.8594 87.1719 35.7969 79.625 35.7969ZM112.555 35.7969C104.164 35.7969 99.1016 30.7344 99.1016 23.375V1.17969H103.32V23.0938C103.32 28.2969 106.695 31.9062 112.555 31.9062C118.414 31.9062 121.742 28.2969 121.742 23.0938V1.17969H125.961V23.375C125.961 30.7344 120.945 35.7969 112.555 35.7969ZM134.539 35V1.17969H139.438L151.016 29.3984H151.391L162.969 1.17969H167.867V35H163.93V9.17188H163.672L152.984 35H149.422L138.734 9.17188H138.477V35H134.539ZM176.492 35V1.17969H197.445V4.97656H180.711V15.8281H196.578V19.5781H180.711V31.2031H197.445V35H176.492Z" fill="#CB4D4D"/>
</svg>
