<svg width="200" height="200" viewBox="0 0 200 200" fill="none" xmlns="http://www.w3.org/2000/svg">
<path d="M168 0C185.673 2.83475e-06 200 14.3269 200 32V168C200 185.673 185.673 200 168 200H32C14.3269 200 0 185.673 0 168V32C2.83492e-06 14.3269 14.3269 0 32 0H168ZM101.296 45C101.381 45.5973 101.509 46.793 101.68 48.585C101.936 50.3768 102.149 52.2969 102.319 54.3447C102.405 55.71 102.447 57.7152 102.447 60.3604C102.453 60.5298 102.456 60.7005 102.461 60.8721C97.9249 60.875 93.1415 60.9612 88.1113 61.1289C83.0768 61.2142 77.9997 61.342 72.8799 61.5127C67.76 61.598 62.896 61.6832 58.2881 61.7686C53.7656 61.8539 49.6692 61.9391 46 62.0244L46.3838 74.3125C51.1624 73.9712 56.3255 73.672 61.8721 73.416C67.5038 73.16 73.3062 72.947 79.2793 72.7764C85.338 72.5204 91.3548 72.35 97.3281 72.2646C99.1155 72.2391 100.888 72.2181 102.645 72.2002C102.683 74.3357 102.704 76.4903 102.704 78.6641C102.746 80.2184 102.777 81.7008 102.798 83.1104C100.635 82.5363 98.2573 82.2481 95.6641 82.248C91.3975 82.248 87.4291 83.2298 83.7598 85.1924C80.1758 87.155 77.2743 89.8861 75.0557 93.3848C72.9225 96.798 71.8555 100.766 71.8555 105.288C71.8555 108.872 72.4528 112.073 73.6475 114.889C74.9275 117.619 76.5917 119.966 78.6396 121.929C80.7729 123.806 83.0771 125.214 85.5518 126.152C88.1117 127.091 90.7142 127.561 93.3594 127.561C96.6998 127.561 99.6617 126.954 102.248 125.747C100.725 128.15 98.8733 130.335 96.6875 132.297C93.3596 135.198 89.3911 137.673 84.7832 139.721C80.1754 141.683 75.0129 143.261 69.2959 144.456L80.1758 155.209C87.7704 152.99 94.0854 150.174 99.1201 146.761C104.24 143.262 108.293 139.422 111.279 135.24C114.266 131.059 116.4 126.75 117.68 122.312C118.96 117.79 119.6 113.438 119.6 109.257C119.6 104.137 118.704 99.5712 116.912 95.5605C116.403 94.3969 115.818 93.3042 115.164 92.2783C115.151 91.7266 115.137 91.1565 115.12 90.5684C115.12 87.4965 115.077 84.254 114.991 80.8408V72.1367C124.349 72.1382 132.115 72.2235 138.288 72.3926C144.603 72.4779 149.594 72.6057 153.264 72.7764L153.52 60.7441H115.003C115.084 58.0269 115.167 55.8937 115.248 54.3447C115.248 53.7474 115.291 52.8083 115.376 51.5283C115.461 50.2484 115.547 48.9684 115.632 47.6885C115.802 46.4085 115.93 45.512 116.016 45H101.296ZM95.5352 93.001C98.7777 93.001 101.509 94.1522 103.728 96.4561C104.45 97.1786 105.059 98.0405 105.555 99.04C106.062 102.428 106.053 105.322 105.52 107.721C104.837 110.707 103.6 112.926 101.808 114.377C100.101 115.742 98.0097 116.425 95.5352 116.425C92.4634 116.425 89.7329 115.443 87.3438 113.48C85.0397 111.432 83.8877 108.616 83.8877 105.032C83.8877 102.472 84.4426 100.297 85.5518 98.5049C86.6611 96.7129 88.1114 95.3469 89.9033 94.4082C91.6952 93.4696 93.5727 93.0011 95.5352 93.001Z" fill="#D9D9D9"/>
</svg>
