<svg width="25" height="22" viewBox="0 0 25 22" fill="none" xmlns="http://www.w3.org/2000/svg">
<path d="M1.50148 9.19C1.34148 9.19 1.22482 9.15333 1.15148 9.08C1.07815 9.00667 1.04148 8.89 1.04148 8.73V7.56C1.04148 7.47333 1.05148 7.4 1.07148 7.34C1.09815 7.28 1.13482 7.23 1.18148 7.19L2.18148 6.35C1.82815 6.24333 1.54815 6.06333 1.34148 5.81C1.14148 5.55 1.04148 5.18 1.04148 4.7V3.65C1.04148 3.35 1.09148 3.08333 1.19148 2.85C1.29148 2.61667 1.43482 2.42 1.62148 2.26L2.92148 1.17C3.10148 1.02333 3.32482 0.91 3.59148 0.83C3.85815 0.743333 4.16148 0.7 4.50148 0.7H7.30148C7.46148 0.7 7.57815 0.736666 7.65148 0.81C7.72482 0.883333 7.76148 1 7.76148 1.16V2.35C7.76148 2.43667 7.74815 2.51 7.72148 2.57C7.70148 2.63 7.66815 2.68 7.62148 2.72L6.72148 3.47C7.14148 3.56333 7.47815 3.74 7.73148 4C7.99148 4.25333 8.12148 4.65 8.12148 5.19V6.24C8.12148 6.54 8.07148 6.80667 7.97148 7.04C7.87148 7.27333 7.72482 7.47 7.53148 7.63L6.24148 8.71C6.05482 8.86333 5.82815 8.98 5.56148 9.06C5.29482 9.14667 4.99482 9.19 4.66148 9.19H1.50148ZM5.95148 8C6.59148 8 7.09482 7.85 7.46148 7.55C7.83482 7.24333 8.02148 6.80667 8.02148 6.24V5.19C8.02148 4.63 7.87815 4.23 7.59148 3.99C7.30482 3.75 6.92815 3.59667 6.46148 3.53L4.97148 3.33C4.88482 3.32333 4.81815 3.29 4.77148 3.23C4.72482 3.17 4.70148 3.09667 4.70148 3.01C4.70148 2.92333 4.72482 2.85333 4.77148 2.8C4.81815 2.74 4.88482 2.71 4.97148 2.71H7.30148C7.42815 2.71 7.51815 2.68333 7.57148 2.63C7.63148 2.57 7.66148 2.47667 7.66148 2.35V1.16C7.66148 1.03333 7.63148 0.943333 7.57148 0.89C7.51815 0.83 7.42815 0.8 7.30148 0.8H4.50148C3.85482 0.8 3.34815 0.953333 2.98148 1.26C2.61482 1.56 2.43148 1.99333 2.43148 2.56V3.61C2.43148 4.17 2.57148 4.57 2.85148 4.81C3.13815 5.05 3.51482 5.20333 3.98148 5.27L5.48148 5.48C5.56815 5.48667 5.63148 5.51667 5.67148 5.57C5.71815 5.62333 5.74148 5.70667 5.74148 5.82C5.74148 5.9 5.71815 5.97 5.67148 6.03C5.63148 6.08333 5.56815 6.11 5.48148 6.11H2.79148C2.66482 6.11 2.57148 6.14 2.51148 6.2C2.45815 6.25333 2.43148 6.34333 2.43148 6.47V7.64C2.43148 7.76667 2.45815 7.86 2.51148 7.92C2.57148 7.97333 2.66482 8 2.79148 8H5.95148ZM6.76148 1.7V1.8H4.54148C4.26148 1.8 4.03815 1.87667 3.87148 2.03C3.70482 2.18333 3.62148 2.37667 3.62148 2.61V3.43C3.62148 3.66333 3.66815 3.82667 3.76148 3.92C3.85482 4.01333 3.97815 4.07333 4.13148 4.1L6.24148 4.53C6.44148 4.57 6.60482 4.65667 6.73148 4.79C6.86482 4.92333 6.93148 5.16333 6.93148 5.51V6.09C6.93148 6.38333 6.83148 6.62667 6.63148 6.82C6.43148 7.00667 6.16148 7.1 5.82148 7.1H3.33148V7H5.82148C6.12815 7 6.37148 6.91667 6.55148 6.75C6.73815 6.57667 6.83148 6.35667 6.83148 6.09V5.51C6.83148 5.19667 6.77482 4.98333 6.66148 4.87C6.55482 4.75 6.40815 4.67 6.22148 4.63L4.11148 4.2C3.93815 4.16667 3.79482 4.1 3.68148 4C3.57482 3.89333 3.52148 3.70333 3.52148 3.43V2.61C3.52148 2.34333 3.61482 2.12667 3.80148 1.96C3.98815 1.78667 4.23482 1.7 4.54148 1.7H6.76148ZM11.8615 9.34C11.2148 9.34 10.6815 9.27 10.2615 9.13C9.84815 8.99667 9.52482 8.81667 9.29148 8.59C9.05815 8.36333 8.89482 8.10333 8.80148 7.81C8.71482 7.51667 8.67148 7.21333 8.67148 6.9V2.25C8.67148 2.16333 8.68148 2.09 8.70148 2.03C8.72815 1.97 8.76482 1.92 8.81148 1.88L10.1015 0.79C10.1348 0.763333 10.1782 0.743333 10.2315 0.729999C10.2915 0.71 10.3548 0.7 10.4215 0.7H11.9915C12.1515 0.7 12.2682 0.736666 12.3415 0.81C12.4148 0.883333 12.4515 1 12.4515 1.16V5.72C12.4515 5.78 12.4615 5.83667 12.4815 5.89C12.5015 5.93667 12.5448 5.97333 12.6115 6V2.25C12.6115 2.16333 12.6215 2.09 12.6415 2.03C12.6615 1.97 12.6915 1.92333 12.7315 1.89L12.7415 1.88L14.0415 0.79C14.0748 0.763333 14.1182 0.743333 14.1715 0.729999C14.2248 0.71 14.2882 0.7 14.3615 0.7H15.8815C16.0415 0.7 16.1582 0.736666 16.2315 0.81C16.3048 0.883333 16.3415 1 16.3415 1.16V6.11C16.3415 6.41667 16.2982 6.7 16.2115 6.96C16.1248 7.22 15.9682 7.44333 15.7415 7.63L14.4415 8.71C14.2082 8.91 13.8848 9.06333 13.4715 9.17C13.0582 9.28333 12.5215 9.34 11.8615 9.34ZM16.2415 6.11V1.16C16.2415 1.03333 16.2115 0.943333 16.1515 0.89C16.0982 0.83 16.0082 0.8 15.8815 0.8H14.3615C14.2348 0.8 14.1415 0.83 14.0815 0.89C14.0282 0.943333 14.0015 1.03333 14.0015 1.16V5.72C14.0015 5.85333 13.9515 5.96667 13.8515 6.06C13.7515 6.14667 13.5248 6.19 13.1715 6.19C12.8248 6.19 12.6015 6.14667 12.5015 6.06C12.4015 5.96667 12.3515 5.85333 12.3515 5.72V1.16C12.3515 1.03333 12.3215 0.943333 12.2615 0.89C12.2082 0.83 12.1182 0.8 11.9915 0.8H10.4215C10.2948 0.8 10.2015 0.83 10.1415 0.89C10.0882 0.943333 10.0615 1.03333 10.0615 1.16V6.11C10.0615 6.41667 10.1048 6.69667 10.1915 6.95C10.2848 7.19667 10.4448 7.41 10.6715 7.59C10.9048 7.76333 11.2215 7.9 11.6215 8C12.0215 8.1 12.5315 8.15 13.1515 8.15C13.7715 8.15 14.2815 8.1 14.6815 8C15.0815 7.9 15.3948 7.76333 15.6215 7.59C15.8548 7.41 16.0148 7.19667 16.1015 6.95C16.1948 6.69667 16.2415 6.41667 16.2415 6.11ZM11.1615 1.7H11.2615V5.87C11.2615 6.24333 11.3915 6.54667 11.6515 6.78C11.9182 7.00667 12.4215 7.12 13.1615 7.12C13.9015 7.12 14.4048 7.00667 14.6715 6.78C14.9382 6.54667 15.0715 6.24333 15.0715 5.87V1.7H15.1715V5.87C15.1715 6.27 15.0315 6.59667 14.7515 6.85C14.4715 7.09667 13.9415 7.22 13.1615 7.22C12.3815 7.22 11.8515 7.09667 11.5715 6.85C11.2982 6.59667 11.1615 6.27 11.1615 5.87V1.7ZM17.4585 9.19C17.2985 9.19 17.1818 9.15333 17.1085 9.08C17.0352 9.00667 16.9985 8.89 16.9985 8.73V7.56C16.9985 7.47333 17.0085 7.4 17.0285 7.34C17.0552 7.28 17.0918 7.23 17.1385 7.19L18.1385 6.35C17.7852 6.24333 17.5052 6.06333 17.2985 5.81C17.0985 5.55 16.9985 5.18 16.9985 4.7V3.65C16.9985 3.35 17.0485 3.08333 17.1485 2.85C17.2485 2.61667 17.3918 2.42 17.5785 2.26L18.8785 1.17C19.0585 1.02333 19.2818 0.91 19.5485 0.83C19.8152 0.743333 20.1185 0.7 20.4585 0.7H23.2585C23.4185 0.7 23.5352 0.736666 23.6085 0.81C23.6818 0.883333 23.7185 1 23.7185 1.16V2.35C23.7185 2.43667 23.7052 2.51 23.6785 2.57C23.6585 2.63 23.6252 2.68 23.5785 2.72L22.6785 3.47C23.0985 3.56333 23.4352 3.74 23.6885 4C23.9485 4.25333 24.0785 4.65 24.0785 5.19V6.24C24.0785 6.54 24.0285 6.80667 23.9285 7.04C23.8285 7.27333 23.6818 7.47 23.4885 7.63L22.1985 8.71C22.0118 8.86333 21.7852 8.98 21.5185 9.06C21.2518 9.14667 20.9518 9.19 20.6185 9.19H17.4585ZM21.9085 8C22.5485 8 23.0518 7.85 23.4185 7.55C23.7918 7.24333 23.9785 6.80667 23.9785 6.24V5.19C23.9785 4.63 23.8352 4.23 23.5485 3.99C23.2618 3.75 22.8852 3.59667 22.4185 3.53L20.9285 3.33C20.8418 3.32333 20.7752 3.29 20.7285 3.23C20.6818 3.17 20.6585 3.09667 20.6585 3.01C20.6585 2.92333 20.6818 2.85333 20.7285 2.8C20.7752 2.74 20.8418 2.71 20.9285 2.71H23.2585C23.3852 2.71 23.4752 2.68333 23.5285 2.63C23.5885 2.57 23.6185 2.47667 23.6185 2.35V1.16C23.6185 1.03333 23.5885 0.943333 23.5285 0.89C23.4752 0.83 23.3852 0.8 23.2585 0.8H20.4585C19.8118 0.8 19.3052 0.953333 18.9385 1.26C18.5718 1.56 18.3885 1.99333 18.3885 2.56V3.61C18.3885 4.17 18.5285 4.57 18.8085 4.81C19.0952 5.05 19.4718 5.20333 19.9385 5.27L21.4385 5.48C21.5252 5.48667 21.5885 5.51667 21.6285 5.57C21.6752 5.62333 21.6985 5.70667 21.6985 5.82C21.6985 5.9 21.6752 5.97 21.6285 6.03C21.5885 6.08333 21.5252 6.11 21.4385 6.11H18.7485C18.6218 6.11 18.5285 6.14 18.4685 6.2C18.4152 6.25333 18.3885 6.34333 18.3885 6.47V7.64C18.3885 7.76667 18.4152 7.86 18.4685 7.92C18.5285 7.97333 18.6218 8 18.7485 8H21.9085ZM22.7185 1.7V1.8H20.4985C20.2185 1.8 19.9952 1.87667 19.8285 2.03C19.6618 2.18333 19.5785 2.37667 19.5785 2.61V3.43C19.5785 3.66333 19.6252 3.82667 19.7185 3.92C19.8118 4.01333 19.9352 4.07333 20.0885 4.1L22.1985 4.53C22.3985 4.57 22.5618 4.65667 22.6885 4.79C22.8218 4.92333 22.8885 5.16333 22.8885 5.51V6.09C22.8885 6.38333 22.7885 6.62667 22.5885 6.82C22.3885 7.00667 22.1185 7.1 21.7785 7.1H19.2885V7H21.7785C22.0852 7 22.3285 6.91667 22.5085 6.75C22.6952 6.57667 22.7885 6.35667 22.7885 6.09V5.51C22.7885 5.19667 22.7318 4.98333 22.6185 4.87C22.5118 4.75 22.3652 4.67 22.1785 4.63L20.0685 4.2C19.8952 4.16667 19.7518 4.1 19.6385 4C19.5318 3.89333 19.4785 3.70333 19.4785 3.43V2.61C19.4785 2.34333 19.5718 2.12667 19.7585 1.96C19.9452 1.78667 20.1918 1.7 20.4985 1.7H22.7185ZM3.34586 21.34C2.69919 21.34 2.16586 21.27 1.74586 21.13C1.33253 20.9967 1.00919 20.8167 0.775859 20.59C0.542526 20.3633 0.379193 20.1033 0.285859 19.81C0.199193 19.5167 0.155859 19.2133 0.155859 18.9V14.25C0.155859 14.1633 0.165859 14.09 0.185859 14.03C0.212526 13.97 0.249193 13.92 0.295859 13.88L1.58586 12.79C1.61919 12.7633 1.66253 12.7433 1.71586 12.73C1.77586 12.71 1.83919 12.7 1.90586 12.7H3.47586C3.63586 12.7 3.75253 12.7367 3.82586 12.81C3.89919 12.8833 3.93586 13 3.93586 13.16V17.72C3.93586 17.78 3.94586 17.8367 3.96586 17.89C3.98586 17.9367 4.02919 17.9733 4.09586 18V14.25C4.09586 14.1633 4.10586 14.09 4.12586 14.03C4.14586 13.97 4.17586 13.9233 4.21586 13.89L4.22586 13.88L5.52586 12.79C5.55919 12.7633 5.60253 12.7433 5.65586 12.73C5.70919 12.71 5.77253 12.7 5.84586 12.7H7.36586C7.52586 12.7 7.64253 12.7367 7.71586 12.81C7.78919 12.8833 7.82586 13 7.82586 13.16V18.11C7.82586 18.4167 7.78253 18.7 7.69586 18.96C7.60919 19.22 7.45253 19.4433 7.22586 19.63L5.92586 20.71C5.69253 20.91 5.36919 21.0633 4.95586 21.17C4.54253 21.2833 4.00586 21.34 3.34586 21.34ZM7.72586 18.11V13.16C7.72586 13.0333 7.69586 12.9433 7.63586 12.89C7.58253 12.83 7.49253 12.8 7.36586 12.8H5.84586C5.71919 12.8 5.62586 12.83 5.56586 12.89C5.51253 12.9433 5.48586 13.0333 5.48586 13.16V17.72C5.48586 17.8533 5.43586 17.9667 5.33586 18.06C5.23586 18.1467 5.00919 18.19 4.65586 18.19C4.30919 18.19 4.08586 18.1467 3.98586 18.06C3.88586 17.9667 3.83586 17.8533 3.83586 17.72V13.16C3.83586 13.0333 3.80586 12.9433 3.74586 12.89C3.69253 12.83 3.60253 12.8 3.47586 12.8H1.90586C1.77919 12.8 1.68586 12.83 1.62586 12.89C1.57253 12.9433 1.54586 13.0333 1.54586 13.16V18.11C1.54586 18.4167 1.58919 18.6967 1.67586 18.95C1.76919 19.1967 1.92919 19.41 2.15586 19.59C2.38919 19.7633 2.70586 19.9 3.10586 20C3.50586 20.1 4.01586 20.15 4.63586 20.15C5.25586 20.15 5.76586 20.1 6.16586 20C6.56586 19.9 6.87919 19.7633 7.10586 19.59C7.33919 19.41 7.49919 19.1967 7.58586 18.95C7.67919 18.6967 7.72586 18.4167 7.72586 18.11ZM2.64586 13.7H2.74586V17.87C2.74586 18.2433 2.87586 18.5467 3.13586 18.78C3.40253 19.0067 3.90586 19.12 4.64586 19.12C5.38586 19.12 5.88919 19.0067 6.15586 18.78C6.42253 18.5467 6.55586 18.2433 6.55586 17.87V13.7H6.65586V17.87C6.65586 18.27 6.51586 18.5967 6.23586 18.85C5.95586 19.0967 5.42586 19.22 4.64586 19.22C3.86586 19.22 3.33586 19.0967 3.05586 18.85C2.78253 18.5967 2.64586 18.27 2.64586 17.87V13.7ZM13.5729 16.15C13.6929 16.15 13.7796 16.1233 13.8329 16.07C13.8862 16.0167 13.9696 15.9033 14.0829 15.73L15.3029 13.87C15.3429 13.8033 15.3862 13.76 15.4329 13.74C15.4862 13.7133 15.5396 13.7 15.5929 13.7H15.7629C15.8562 13.7 15.9229 13.7267 15.9629 13.78C16.0096 13.8267 16.0329 13.9033 16.0329 14.01V19.1H15.9329V14.01C15.9329 13.9567 15.9196 13.91 15.8929 13.87C15.8729 13.8233 15.8296 13.8 15.7629 13.8H15.6129C15.5662 13.8 15.5262 13.8067 15.4929 13.82C15.4596 13.8333 15.4229 13.8733 15.3829 13.94L14.1629 15.78C14.0429 15.96 13.9496 16.0833 13.8829 16.15C13.8229 16.2167 13.7196 16.25 13.5729 16.25C13.4262 16.25 13.3196 16.2167 13.2529 16.15C13.1929 16.0833 13.1029 15.96 12.9829 15.78L11.7629 13.94C11.7229 13.8733 11.6829 13.8333 11.6429 13.82C11.6096 13.8067 11.5696 13.8 11.5229 13.8H11.3729C11.3062 13.8 11.2629 13.8233 11.2429 13.87C11.2229 13.91 11.2129 13.9567 11.2129 14.01V19.1H11.1129V14.01C11.1129 13.9033 11.1329 13.8267 11.1729 13.78C11.2196 13.7267 11.2862 13.7 11.3729 13.7H11.5429C11.5962 13.7 11.6496 13.7133 11.7029 13.74C11.7562 13.76 11.8029 13.8033 11.8429 13.87L13.0629 15.73C13.1762 15.9033 13.2596 16.0167 13.3129 16.07C13.3662 16.1233 13.4529 16.15 13.5729 16.15ZM11.9029 20C12.0296 20 12.1196 19.9733 12.1729 19.92C12.2329 19.86 12.2629 19.7667 12.2629 19.64V16.12L12.8529 17.21C12.9129 17.3233 12.9829 17.4067 13.0629 17.46C13.1496 17.5067 13.2562 17.53 13.3829 17.53H13.7829C13.9096 17.53 14.0129 17.5067 14.0929 17.46C14.1796 17.4067 14.2529 17.3233 14.3129 17.21L14.9029 16.12V19.64C14.9029 19.7667 14.9296 19.86 14.9829 19.92C15.0429 19.9733 15.1362 20 15.2629 20H16.8029C16.9296 20 17.0196 19.9733 17.0729 19.92C17.1329 19.86 17.1629 19.7667 17.1629 19.64V13.16C17.1629 13.0333 17.1329 12.9433 17.0729 12.89C17.0196 12.83 16.9296 12.8 16.8029 12.8H15.1829C15.0762 12.8 14.9862 12.8233 14.9129 12.87C14.8462 12.9167 14.7829 12.9933 14.7229 13.1L13.8329 14.73C13.7996 14.79 13.7696 14.8333 13.7429 14.86C13.7229 14.8867 13.6929 14.9 13.6529 14.9H13.5629C13.5229 14.9 13.4896 14.8867 13.4629 14.86C13.4429 14.8333 13.4162 14.79 13.3829 14.73L12.4829 13.1C12.4229 12.9933 12.3562 12.9167 12.2829 12.87C12.2162 12.8233 12.1296 12.8 12.0229 12.8H10.4129C10.2862 12.8 10.1929 12.83 10.1329 12.89C10.0796 12.9433 10.0529 13.0333 10.0529 13.16V19.64C10.0529 19.7667 10.0796 19.86 10.1329 19.92C10.1929 19.9733 10.2862 20 10.4129 20H11.9029ZM12.2229 20.01L10.9229 21.09C10.8962 21.1167 10.8529 21.14 10.7929 21.16C10.7396 21.18 10.6796 21.19 10.6129 21.19H9.12289C8.96289 21.19 8.84622 21.1533 8.77289 21.08C8.69956 21.0067 8.66289 20.89 8.66289 20.73V14.25C8.66289 14.1633 8.67289 14.09 8.69289 14.03C8.71956 13.97 8.75622 13.92 8.80289 13.88L10.0929 12.79C10.1262 12.7633 10.1696 12.7433 10.2229 12.73C10.2829 12.71 10.3462 12.7 10.4129 12.7H12.0229C12.1496 12.7 12.2529 12.7267 12.3329 12.78C12.4196 12.8333 12.4996 12.9233 12.5729 13.05L13.2529 14.3L13.3429 14.14C13.3696 14.0933 13.3962 14.05 13.4229 14.01C13.4562 13.9633 13.4896 13.9267 13.5229 13.9L14.8129 12.82C14.8662 12.78 14.9196 12.75 14.9729 12.73C15.0329 12.71 15.1029 12.7 15.1829 12.7H16.8029C16.9629 12.7 17.0796 12.7367 17.1529 12.81C17.2262 12.8833 17.2629 13 17.2629 13.16V19.64C17.2629 19.7267 17.2496 19.8 17.2229 19.86C17.2029 19.92 17.1696 19.97 17.1229 20.01L15.8229 21.09C15.7962 21.1167 15.7529 21.14 15.6929 21.16C15.6396 21.18 15.5796 21.19 15.5129 21.19H13.9729C13.8062 21.19 13.6862 21.1533 13.6129 21.08C13.5462 21.0067 13.5129 20.89 13.5129 20.73V18.09L12.9229 18.58C12.8696 18.6267 12.8062 18.6633 12.7329 18.69C12.6662 18.71 12.5862 18.72 12.4929 18.72H12.3629V19.64C12.3629 19.7267 12.3496 19.8 12.3229 19.86C12.3029 19.92 12.2696 19.97 12.2229 20.01ZM23.2551 21.19H18.6151C18.4551 21.19 18.3384 21.1533 18.2651 21.08C18.1917 21.0067 18.1551 20.89 18.1551 20.73V14.25C18.1551 14.1633 18.1651 14.09 18.1851 14.03C18.2117 13.97 18.2484 13.92 18.2951 13.88L19.5851 12.79C19.6184 12.7633 19.6617 12.7433 19.7151 12.73C19.7751 12.71 19.8384 12.7 19.9051 12.7H24.5451C24.7051 12.7 24.8217 12.7367 24.8951 12.81C24.9684 12.8833 25.0051 13 25.0051 13.16V14.33C25.0051 14.4167 24.9917 14.49 24.9651 14.55C24.9451 14.61 24.9117 14.66 24.8651 14.7L24.0051 15.41C24.0717 15.4433 24.1184 15.4933 24.1451 15.56C24.1784 15.6267 24.1951 15.7133 24.1951 15.82V16.89C24.1951 16.9767 24.1817 17.05 24.1551 17.11C24.1351 17.17 24.1017 17.22 24.0551 17.26L23.1651 18.01H24.5451C24.7051 18.01 24.8217 18.0467 24.8951 18.12C24.9684 18.1933 25.0051 18.31 25.0051 18.47V19.64C25.0051 19.7267 24.9917 19.8 24.9651 19.86C24.9451 19.92 24.9117 19.97 24.8651 20.01L23.5651 21.09C23.5384 21.1167 23.4951 21.14 23.4351 21.16C23.3817 21.18 23.3217 21.19 23.2551 21.19ZM24.5451 20C24.6717 20 24.7617 19.9733 24.8151 19.92C24.8751 19.86 24.9051 19.7667 24.9051 19.64V18.47C24.9051 18.3433 24.8751 18.2533 24.8151 18.2C24.7617 18.14 24.6717 18.11 24.5451 18.11H21.7851V17.25H23.7351C23.8617 17.25 23.9517 17.2233 24.0051 17.17C24.0651 17.11 24.0951 17.0167 24.0951 16.89V15.82C24.0951 15.6933 24.0651 15.6033 24.0051 15.55C23.9517 15.49 23.8617 15.46 23.7351 15.46H21.7851V14.69H24.5451C24.6717 14.69 24.7617 14.6633 24.8151 14.61C24.8751 14.55 24.9051 14.4567 24.9051 14.33V13.16C24.9051 13.0333 24.8751 12.9433 24.8151 12.89C24.7617 12.83 24.6717 12.8 24.5451 12.8H19.9051C19.7784 12.8 19.6851 12.83 19.6251 12.89C19.5717 12.9433 19.5451 13.0333 19.5451 13.16V19.64C19.5451 19.7667 19.5717 19.86 19.6251 19.92C19.6851 19.9733 19.7784 20 19.9051 20H24.5451ZM24.0051 19V19.1H20.6351V13.7H24.0051V13.8H20.7351V16.31H23.1951V16.41H20.7351V19H24.0051Z" fill="#FE693C"/>
</svg>
